<svg width="340" height="380" viewBox="0 0 336 310" fill="none" xmlns="http://www.w3.org/2000/svg">

    <text x="50" y="310" font-family="Arial Rounded MT Bold, sans-serif" font-weight="bold"  font-size="32" fill="#AE1F24">Geofence SDK</text>

    <mask id="mask0_1_4928" style="mask-type:luminance" maskUnits="userSpaceOnUse" x="-1" y="212" width="337" height="45">
        <path d="M167.5 256.63C260.56 256.63 336 246.78 336 234.63C336 222.48 260.56 212.63 167.5 212.63C74.44 212.63 -1 222.48 -1 234.63C-1 246.78 74.44 256.63 167.5 256.63Z" fill="white"/>
    </mask>
    <g mask="url(#mask0_1_4928)">
        <mask id="mask1_1_4928" style="mask-type:luminance" maskUnits="userSpaceOnUse" x="0" y="212" width="337" height="46">
            <path d="M336.03 212.78H0.320007V257.25H336.03V212.78Z" fill="white"/>
        </mask>
        <g mask="url(#mask1_1_4928)">
            <path d="M322.08 212.78H19.58L-129.54 257.25H465.88L322.08 212.78Z" fill="#FEF8CF"/>
            <path d="M-27.17 247.26C-19.27 248.36 -8.61 248.47 -0.359999 249.15C4.64 249.56 16.83 250.57 14.64 252.61C13.72 253.48 10.12 254.37 6.40999 255.22H21.9L41.75 243.66H-26C-30.16 244.99 -32.77 246.48 -27.12 247.26" fill="#D6B37C"/>
            <path d="M-27.17 247.26C-19.27 248.36 -8.60997 248.47 -0.359974 249.15C4.64003 249.56 16.83 250.57 14.64 252.61C13.72 253.48 10.12 254.37 6.41002 255.22H21.9L41.75 243.66H-26C-30.21 245 -32.82 246.47 -27.17 247.26Z" stroke="#9D8459" stroke-width="2.49" stroke-miterlimit="10"/>
            <path d="M162.45 243.66L160.77 255.22H34.63L52.81 243.66H162.45Z" fill="#D6B37C"/>
            <path d="M162.45 243.66L160.77 255.22H34.63L52.81 243.66H162.45Z" stroke="#9D8459" stroke-width="2.49" stroke-miterlimit="10"/>
            <path d="M197.66 243.66H174.52C174.52 247.51 174.61 251.37 174.66 255.22H201.28L197.65 243.66" fill="#D6B37C"/>
            <path d="M197.66 243.66H174.52C174.52 247.51 174.61 251.37 174.66 255.22H201.28L197.66 243.66Z" stroke="#9D8459" stroke-width="2.49" stroke-miterlimit="10"/>
            <path d="M238.89 243.66H214.76L220.96 255.22H248.73L238.89 243.66Z" fill="#D6B37C"/>
            <path d="M238.89 243.66H214.76L220.96 255.22H248.73L238.89 243.66Z" stroke="#9D8459" stroke-width="2.49" stroke-miterlimit="10"/>
            <path d="M268.4 255.22H300.8L284.15 243.66H256L268.41 255.22" fill="#D6B37C"/>
            <path d="M268.4 255.22H300.8L284.15 243.66H256L268.4 255.22Z" stroke="#9D8459" stroke-width="2.49" stroke-miterlimit="10"/>
            <path d="M342.89 253.68C333.89 252.03 320.42 251.45 308.98 251.68L314.69 255.25H347C346.48 254.72 345.24 254.15 342.87 253.71" fill="#82AF57"/>
            <path d="M342.89 253.68C333.89 252.03 320.42 251.45 308.98 251.68L314.69 255.25H347C346.5 254.69 345.26 254.12 342.89 253.68Z" stroke="#7B9D4B" stroke-width="2.27" stroke-miterlimit="10"/>
            <path d="M334 245.14C338.06 244.79 340.4 244.24 341.54 243.66H296.22L299.87 245.94C311.34 246 323.2 246.09 334.02 245.14" fill="#82AF57"/>
            <path d="M334 245.14C338.06 244.79 340.4 244.24 341.54 243.66H296.22L299.87 245.94C311.34 246 323.2 246.09 334 245.14Z" stroke="#7B9D4B" stroke-width="2.27" stroke-miterlimit="10"/>
            <path d="M368.64 243.66H357.45C356.79 244.93 353.17 246.07 343.76 246.76C330.49 247.76 316.34 247.76 302.68 247.7L306.18 249.89C321.152 249.63 336.125 250.361 351 252.08C358.62 253.08 362.08 254.15 363.45 255.22H398L368.64 243.66Z" fill="#D6B37C"/>
            <path d="M368.64 243.66H357.45C356.79 244.93 353.17 246.07 343.76 246.76C330.49 247.76 316.34 247.76 302.68 247.7L306.18 249.89C321.152 249.63 336.125 250.361 351 252.08C358.62 253.08 362.08 254.15 363.45 255.22H398L368.64 243.66Z" stroke="#9D8459" stroke-width="2.49" stroke-miterlimit="10"/>
            <path d="M28.16 225H-9.12L-49 237.65H-3.57001L28.16 225Z" fill="#D6B37C"/>
            <path d="M28.16 225H-9.12L-49 237.65H-3.57001L28.16 225Z" stroke="#9D8459" stroke-width="3.01" stroke-miterlimit="10"/>
            <path d="M-1.59 230C8.35 229 20.77 227.7 26.24 225H-9.13L-29.49 231.48C-20.02 231.29 -10.18 230.88 -1.59 229.99" fill="#82AF57"/>
            <path d="M-1.59 230C8.35 229 20.77 227.7 26.24 225H-9.13L-29.49 231.48C-20 231.26 -10.18 230.85 -1.59 230Z" stroke="#7B9D4B" stroke-width="2.27" stroke-miterlimit="10"/>
            <path d="M10.69 237.49H52.32L73.82 225H39.58L10.69 237.52" fill="#D6B37C"/>
            <path d="M10.69 237.49H52.32L73.82 225H39.58L10.69 237.49Z" stroke="#9D8459" stroke-width="3.01" stroke-miterlimit="10"/>
            <path d="M7.19 239L0.559998 241.87H44.78L49.72 239H7.19Z" fill="#D6B37C"/>
            <path d="M7.19 239L0.559998 241.87H44.78L49.72 239H7.19Z" stroke="#9D8459" stroke-width="3.01" stroke-miterlimit="10"/>
            <path d="M300.06 236.25H284.39L293.39 241.89H310.39L300.1 236.25" fill="#D6B37C"/>
            <path d="M300.06 236.25H284.39L293.39 241.89H310.39L300.06 236.25Z" stroke="#9D8459" stroke-width="3.01" stroke-miterlimit="10"/>
            <path d="M326 236.25H312.33L323.62 241.89H338.36L326 236.25Z" fill="#D6B37C"/>
            <path d="M326 236.25H312.33L323.62 241.89H338.36L326 236.25Z" stroke="#9D8459" stroke-width="3.01" stroke-miterlimit="10"/>
            <path d="M281.83 234.64H378.58L349.34 225H266.34L281.78 234.67" fill="#82AF57"/>
            <path d="M281.83 234.64H378.58L349.34 225H266.34L281.83 234.64Z" stroke="#7B9D4B" stroke-width="2.27" stroke-miterlimit="10"/>
            <path d="M55.32 218.22H85.42L91.28 214.8H63.18L55.32 218.22Z" fill="#D6B37C"/>
            <path d="M55.32 218.22H85.42L91.28 214.8H63.18L55.32 218.22Z" stroke="#9D8459" stroke-width="2.17" stroke-miterlimit="10"/>
            <path d="M51 220.09L43 223.56H76.24L82.24 220.09H51Z" fill="#D6B37C"/>
            <path d="M51 220.09L43 223.56H76.24L82.24 220.09H51Z" stroke="#9D8459" stroke-width="2.17" stroke-miterlimit="10"/>
            <path d="M53.76 214.81H22.84L-4.69 223.57H31.88L53.77 214.81" fill="#D6B37C"/>
            <path d="M53.76 214.81H22.84L-4.69 223.57H31.88L53.76 214.81Z" stroke="#9D8459" stroke-width="2.17" stroke-miterlimit="10"/>
            <path d="M273.22 221.52H260.87L264.13 223.52H276.94L273.22 221.52Z" fill="#D6B37C"/>
            <path d="M273.22 221.52H260.87L264.13 223.52H276.94L273.22 221.52Z" stroke="#9D8459" stroke-width="2.17" stroke-miterlimit="10"/>
            <path d="M302.33 222.89C300.93 222.43 299.33 221.98 297.86 221.52H280.74L284.74 223.52H304.4C303.66 223.26 302.77 223 302.33 222.85" fill="#D6B37C"/>
            <path d="M302.33 222.89C300.93 222.43 299.33 221.98 297.86 221.52H280.74L284.74 223.52H304.4C303.65 223.3 302.77 223 302.33 222.89Z" stroke="#9D8459" stroke-width="2.17" stroke-miterlimit="10"/>
            <path d="M315.51 223.56H345.07L338.9 221.56H308.77C311.27 222.25 313.82 222.94 315.51 223.56Z" fill="#D6B37C"/>
            <path d="M315.51 223.56H345.07L338.9 221.56H308.77C311.27 222.21 313.82 222.9 315.51 223.56Z" stroke="#9D8459" stroke-width="2.17" stroke-miterlimit="10"/>
            <path d="M267 218.13H255.46L259.02 220.36H271.1L267 218.13Z" fill="#D6B37C"/>
            <path d="M267 218.13H255.46L259.02 220.36H271.1L267 218.13Z" stroke="#9D8459" stroke-width="2.17" stroke-miterlimit="10"/>
            <path d="M289.53 218.13H274.09L278.46 220.36H294.21C292.55 219.849 290.973 219.098 289.53 218.13Z" fill="#D6B37C"/>
            <path d="M289.53 218.13H274.09L278.46 220.36H294.21C292.55 219.849 290.973 219.098 289.53 218.13Z" stroke="#9D8459" stroke-width="2.17" stroke-miterlimit="10"/>
            <path d="M301.24 219.13C302.35 219.62 303.492 220.031 304.66 220.36H335.39L328.64 218.13H299.64C300.138 218.533 300.686 218.869 301.27 219.13" fill="#D6B37C"/>
            <path d="M301.24 219.13C302.35 219.62 303.492 220.031 304.66 220.36H335.39L328.64 218.13H299.64C300.128 218.531 300.666 218.867 301.24 219.13Z" stroke="#9D8459" stroke-width="2.17" stroke-miterlimit="10"/>
            <path d="M261 214.81H250.15L253.6 217H264.92L261 214.81Z" fill="#D6B37C"/>
            <path d="M261 214.81H250.15L253.6 217H264.92L261 214.81Z" stroke="#9D8459" stroke-width="2.17" stroke-miterlimit="10"/>
            <path d="M288.53 216.87C288.35 216.09 288.87 215.4 289.97 214.8H267.57L271.81 216.97H288.56C288.56 216.97 288.56 216.9 288.56 216.87" fill="#D6B37C"/>
            <path d="M288.53 216.87C288.35 216.09 288.87 215.4 289.97 214.8H267.57L271.81 216.97H288.56C288.56 216.97 288.53 216.9 288.53 216.87Z" stroke="#9D8459" stroke-width="2.17" stroke-miterlimit="10"/>
            <path d="M299 217H325.14L318.6 214.83H304C300.81 215.33 299.08 216.08 299 217Z" fill="#D6B37C"/>
            <path d="M299 217H325.14L318.6 214.83H304C300.85 215.31 299.12 216.05 299 217Z" stroke="#9D8459" stroke-width="2.17" stroke-miterlimit="10"/>
            <path d="M65.64 235.5L61.14 238.36H163.22L163.63 235.5H65.64Z" fill="#D6B37C"/>
            <path d="M65.64 235.5L61.14 238.36H163.22L163.63 235.5H65.64Z" stroke="#9D8459" stroke-width="3.01" stroke-miterlimit="10"/>
            <path d="M94.31 227.87C97.7239 227.579 101.095 226.908 104.36 225.87C105.046 225.63 105.714 225.342 106.36 225.01H82.2L76.73 228.49C82.73 228.49 89.81 228.43 94.31 227.91" fill="#82AF57"/>
            <path d="M94.31 227.87C97.7239 227.579 101.095 226.908 104.36 225.87C105.046 225.63 105.714 225.342 106.36 225.01H82.2L76.73 228.49C82.77 228.46 89.81 228.39 94.31 227.87Z" stroke="#7B9D4B" stroke-width="2.27" stroke-miterlimit="10"/>
            <path d="M114.35 226.49C109.305 228.058 104.092 229.021 98.82 229.36C91.09 229.98 82.07 230.2 74 230.18L68.82 233.48H163.92L164.47 229.75C153.15 229.63 134.75 228.57 133.02 224.97H117.75C116.685 225.618 115.543 226.128 114.35 226.49Z" fill="#D6B37C"/>
            <path d="M114.35 226.49C109.305 228.058 104.092 229.021 98.82 229.36C91.09 229.98 82.07 230.2 74 230.18L68.82 233.48H163.92L164.47 229.75C153.15 229.63 134.75 228.57 133.02 224.97H117.75C116.685 225.618 115.543 226.128 114.35 226.49Z" stroke="#9D8459" stroke-width="3.01" stroke-miterlimit="10"/>
            <path d="M135.35 233.48H163.92L164.47 229.75C155.47 229.65 145.92 229.09 138.71 227.63L135.35 233.48Z" fill="#82AF57"/>
            <path d="M135.35 233.48H163.92L164.47 229.75C155.47 229.65 145.92 229.09 138.71 227.63L135.35 233.48Z" stroke="#7B9D4B" stroke-width="2.27" stroke-miterlimit="10"/>
            <path d="M58.71 239.91L55.59 241.91H162.71C162.82 241.12 162.88 240.72 162.99 239.91H58.71Z" fill="#D6B37C"/>
            <path d="M58.71 239.91L55.59 241.91H162.71C162.82 241.12 162.88 240.72 162.99 239.91H58.71Z" stroke="#9D8459" stroke-width="3.01" stroke-miterlimit="10"/>
            <path d="M109.63 217.81C114.45 216.95 115.85 215.71 114.03 214.81H98.19L92.38 218.51C97.82 218.51 104.91 218.66 109.63 217.82" fill="#D6B37C"/>
            <path d="M109.63 217.81C114.45 216.95 115.85 215.71 114.03 214.81H98.19L92.38 218.51C97.82 218.5 104.91 218.65 109.63 217.81Z" stroke="#9D8459" stroke-width="2.17" stroke-miterlimit="10"/>
            <path d="M146.67 218.2C141.98 219.2 134.67 219.48 129.14 220.35C123.61 221.22 121.14 222.41 119.82 223.56H133.89C139.26 220.42 153.52 218.84 166.07 218.64C166.3 217.11 166.41 216.34 166.63 214.8H152C152.69 215.99 151.17 217.26 146.71 218.2" fill="#D6B37C"/>
            <path d="M146.67 218.2C141.98 219.2 134.67 219.48 129.14 220.35C123.61 221.22 121.14 222.41 119.82 223.56H133.89C139.26 220.42 153.52 218.84 166.07 218.64C166.3 217.11 166.41 216.34 166.63 214.8H152C152.65 216 151.13 217.26 146.67 218.2Z" stroke="#9D8459" stroke-width="2.17" stroke-miterlimit="10"/>
            <path d="M129.35 218.34C134.25 217.84 140.91 217.34 142.03 216.27C142.48 215.82 142.75 215.27 142.43 214.8H124.26C125.26 216.17 122.4 217.8 116.1 218.89C108.48 220.22 98.63 220.31 89.61 220.26L84.41 223.56H108.86C112.16 221.1 120.13 219.27 129.35 218.34Z" fill="#D6B37C"/>
            <path d="M129.35 218.34C134.25 217.84 140.91 217.34 142.03 216.27C142.48 215.82 142.75 215.27 142.43 214.8H124.26C125.26 216.17 122.4 217.8 116.1 218.89C108.48 220.22 98.63 220.31 89.61 220.26L84.41 223.56H108.86C112.17 221.1 120.13 219.27 129.35 218.34Z" stroke="#9D8459" stroke-width="2.17" stroke-miterlimit="10"/>
            <path d="M198.94 237.88C204.31 236.24 214.04 235.59 222.09 235.28C238.26 234.64 254.64 234.59 271.09 234.62L263.09 229.09C250.36 229.09 234.62 228.61 223.91 230.19C216.51 231.29 214.16 233.82 205.08 234.66C194.853 235.52 184.603 235.87 174.33 235.71C174.33 237.77 174.38 239.83 174.41 241.89H196.84C196.18 240.54 194.95 239.06 198.84 237.89" fill="#D6B37C"/>
            <path d="M198.94 237.88C204.31 236.24 214.04 235.59 222.09 235.28C238.26 234.64 254.64 234.59 271.09 234.62L263.09 229.09C250.36 229.09 234.62 228.61 223.91 230.19C216.51 231.29 214.16 233.82 205.08 234.66C194.853 235.52 184.603 235.87 174.33 235.71C174.33 237.77 174.38 239.83 174.41 241.89H196.84C196.27 240.54 195 239.07 198.94 237.88Z" stroke="#9D8459" stroke-width="3.01" stroke-miterlimit="10"/>
            <path d="M264.35 229.91C255.65 229.78 245.12 229.76 237.83 230.98C232.83 231.82 237.51 233.23 237.48 234.35C237.462 234.519 237.388 234.678 237.27 234.8C248.54 234.59 259.85 234.58 271.14 234.62L264.35 229.91Z" fill="#82AF57"/>
            <path d="M264.35 229.91C255.65 229.78 245.12 229.76 237.83 230.98C232.83 231.82 237.51 233.23 237.48 234.35C237.462 234.519 237.388 234.678 237.27 234.8C248.54 234.59 259.85 234.58 271.14 234.62L264.35 229.91Z" stroke="#7B9D4B" stroke-width="2.27" stroke-miterlimit="10"/>
            <path d="M211.65 235.93C212.89 235.699 214.149 235.581 215.41 235.58C229.22 235.17 222.79 233.32 222.68 231.93C222.62 231.1 224.6 230.33 227.97 229.74C226.52 229.87 225.13 230.02 223.97 230.2C216.44 231.41 214.22 233.82 205.14 234.67C194.913 235.518 184.65 235.852 174.39 235.67C174.39 237.73 174.44 239.79 174.46 241.85H196.89C196.24 240.5 195.04 239.1 198.89 237.85C201.47 237.01 206.1 236.37 211.6 235.85" fill="#82AF57"/>
            <path d="M211.65 235.93C212.89 235.699 214.149 235.581 215.41 235.58C229.22 235.17 222.79 233.32 222.68 231.93C222.62 231.1 224.6 230.33 227.97 229.74C226.52 229.87 225.13 230.02 223.97 230.2C216.44 231.41 214.22 233.82 205.14 234.67C194.913 235.518 184.65 235.852 174.39 235.67C174.39 237.73 174.44 239.79 174.46 241.85H196.89C196.24 240.5 195.04 239.1 198.89 237.85C201.52 237 206.15 236.4 211.65 235.93Z" stroke="#7B9D4B" stroke-width="2.27" stroke-miterlimit="10"/>
            <path d="M232.08 236.77C225.36 236.97 214.74 237.27 211.35 238.77C209.35 239.63 210.7 240.84 211.44 241.88H281.61L273.61 236.36C259.61 236.36 245.79 236.36 232.03 236.76" fill="#D6B37C"/>
            <path d="M232.08 236.77C225.36 236.97 214.74 237.27 211.35 238.77C209.35 239.63 210.7 240.84 211.44 241.88H281.61L273.61 236.36C259.69 236.34 245.83 236.36 232.08 236.77Z" stroke="#9D8459" stroke-width="3.01" stroke-miterlimit="10"/>
            <path d="M174.35 229.69V233.95C183.69 234.05 197.45 234.02 203.16 232.19C208.16 230.59 213.92 228.6 222.72 228.1C234.99 227.4 247.72 227.42 260.61 227.34L257.25 225H203.62C201.04 228.47 185.62 229.22 174.35 229.72" fill="#D6B37C"/>
            <path d="M174.35 229.69V233.95C183.69 234.05 197.45 234.02 203.16 232.19C208.16 230.59 213.92 228.6 222.72 228.1C234.99 227.4 247.72 227.42 260.61 227.34L257.25 225H203.62C201 228.44 185.61 229.19 174.35 229.69Z" stroke="#9D8459" stroke-width="3.01" stroke-miterlimit="10"/>
            <path d="M238.12 223.56H255.22L242.61 214.81H228.15L238.12 223.56Z" fill="#D6B37C"/>
            <path d="M238.12 223.56H255.22L242.61 214.81H228.15L238.12 223.56Z" stroke="#9D8459" stroke-width="2.17" stroke-miterlimit="10"/>
            <path d="M213.93 223.56H231.61L222.61 214.8H207.7L213.93 223.56Z" fill="#D6B37C"/>
            <path d="M213.93 223.56H231.61L222.61 214.8H207.7L213.93 223.56Z" stroke="#9D8459" stroke-width="2.17" stroke-miterlimit="10"/>
            <path d="M201.4 214.81H174.17C174.17 216.37 174.17 217.15 174.17 218.71C184.99 219.09 199.27 220.57 202.96 223.57H206.44L201.36 214.81" fill="#D6B37C"/>
            <path d="M201.4 214.81H174.17C174.17 216.37 174.17 217.15 174.17 218.71C184.99 219.09 199.27 220.57 202.96 223.57H206.44L201.4 214.81Z" stroke="#9D8459" stroke-width="2.17" stroke-miterlimit="10"/>
            <path d="M168.2 220.27C177.9 220.34 191.72 221.68 192.59 224.2C193.52 226.93 176.66 228.05 167.41 228.12C158.6 228.19 141.54 226.86 143.02 224.2C144.38 221.75 158.51 220.2 168.2 220.27Z" fill="#D6B37C"/>
            <path d="M168.2 220.27C177.9 220.34 191.72 221.68 192.59 224.2C193.52 226.93 176.66 228.05 167.41 228.12C158.6 228.19 141.54 226.86 143.02 224.2C144.38 221.75 158.51 220.2 168.2 220.27Z" stroke="#9D8459" stroke-width="2.38" stroke-miterlimit="10"/>
            <path d="M45.46 215.7L27.2 222.7H5.04999L26.05 215.7H45.46Z" fill="#82AF57"/>
            <path d="M45.46 215.7L27.2 222.7H5.04999L26.05 215.7H45.46Z" stroke="#7B9D4B" stroke-width="2.27" stroke-miterlimit="10"/>
            <path d="M-104.23 255.22H-10.54C4.31999 253.12 -2.28 251.22 -16.06 250.39C-25.64 249.82 -35.35 249.11 -43.99 247.88H-81.14L-104.23 255.22Z" fill="#82AF57"/>
            <path d="M169.65 222C176.23 222 181.65 222.87 181.85 224C181.85 224.21 181.85 224.32 181.93 224.54C182.08 225.62 176.44 226.54 169.33 226.54H165.82C158.71 226.54 153.25 225.66 153.63 224.54L153.81 224C154.19 222.91 159.81 222 166.41 222H169.65Z" fill="#3FBCD2"/>
            <path d="M169.65 222C176.23 222 181.65 222.87 181.85 224C181.85 224.21 181.85 224.32 181.93 224.54C182.08 225.62 176.44 226.54 169.33 226.54H165.82C158.71 226.54 153.25 225.66 153.63 224.54L153.81 224C154.19 222.91 159.81 222 166.41 222H169.65Z" stroke="#40ACB2" stroke-width="2.27" stroke-miterlimit="10"/>
            <path d="M77.5 253.1C86.26 252.66 92.58 249.43 102.87 250.88C107.78 251.58 105.79 252.11 116.2 252.23C127.2 252.35 126.66 251.84 127.83 250.89C128.092 250.54 128.429 250.255 128.817 250.054C129.205 249.853 129.633 249.742 130.07 249.73C132.7 249.3 136.65 249.32 140.18 249C147.32 248.34 149.23 247.17 147.32 246.24C145.41 245.31 140.68 244.92 133.62 245.6C127.11 246.23 127.78 247.42 116.62 247.15C109.16 246.96 109.69 246.15 104.32 245.69C100.27 245.35 89.27 244.99 84.08 245.09C79.92 245.17 80.4 245.4 77.25 245.53C73.4 245.7 69.25 245.53 65.52 245.71C58.87 245.99 56.05 246.92 61.57 247.48C66.02 247.92 79.21 247.64 72.97 248.68C71.53 248.92 67.68 248.92 65.97 249.12C64.5802 249.209 63.2213 249.569 61.97 250.18C61.97 250.18 57.61 251.51 62.11 252.59C62.11 252.59 64.92 253.74 77.53 253.1" fill="#3FBCD2"/>
            <path d="M77.5 253.1C86.26 252.66 92.58 249.43 102.87 250.88C107.78 251.58 105.79 252.11 116.2 252.23C127.2 252.35 126.66 251.84 127.83 250.89C128.092 250.54 128.429 250.255 128.817 250.054C129.205 249.853 129.633 249.742 130.07 249.73C132.7 249.3 136.65 249.32 140.18 249C147.32 248.34 149.23 247.17 147.32 246.24C145.41 245.31 140.68 244.92 133.62 245.6C127.11 246.23 127.78 247.42 116.62 247.15C109.16 246.96 109.69 246.15 104.32 245.69C100.27 245.35 89.27 244.99 84.08 245.09C79.92 245.17 80.4 245.4 77.25 245.53C73.4 245.7 69.25 245.53 65.52 245.71C58.87 245.99 56.05 246.92 61.57 247.48C66.02 247.92 79.21 247.64 72.97 248.68C71.53 248.92 67.68 248.92 65.97 249.12C64.5802 249.209 63.2213 249.569 61.97 250.18C61.97 250.18 57.61 251.51 62.11 252.59C62.08 252.59 64.89 253.73 77.5 253.1Z" stroke="#40ACB2" stroke-width="2.27" stroke-miterlimit="10"/>
            <path d="M313.12 226.72C307.78 227.35 309 228.62 309.73 229.72C310.46 230.82 308.23 231.78 300.48 232.02C292.96 232.25 284.61 232.02 277.1 231.7L278.56 232.61C287.63 232.85 296.97 233.17 306.02 232.8C316.12 232.39 317.21 230.8 315.74 229.42C314.74 228.5 315.12 227.52 321.09 227.27C324.362 227.178 327.637 227.262 330.9 227.52C328.83 227.63 327.24 227.87 327.31 228.22C327.38 228.57 327.94 228.73 328.65 228.99C329.87 229.45 330.43 229.59 326.65 229.56C325.36 229.56 324.22 229.73 324.47 229.89C328.09 232.17 347.64 232.74 354.16 231.23C357.01 230.56 353.16 229.34 347.41 228.45C345.662 228.089 343.891 227.852 342.11 227.74C338.64 227.33 334.96 226.98 331.62 226.74C325.464 226.225 319.276 226.225 313.12 226.74" fill="#3FBCD2"/>
            <path d="M313.12 226.72C307.78 227.35 309 228.62 309.73 229.72C310.46 230.82 308.23 231.78 300.48 232.02C292.96 232.25 284.61 232.02 277.1 231.7L278.56 232.61C287.63 232.85 296.97 233.17 306.02 232.8C316.12 232.39 317.21 230.8 315.74 229.42C314.74 228.5 315.12 227.52 321.09 227.27C324.362 227.178 327.637 227.262 330.9 227.52C328.83 227.63 327.24 227.87 327.31 228.22C327.38 228.57 327.94 228.73 328.65 228.99C329.87 229.45 330.43 229.59 326.65 229.56C325.36 229.56 324.22 229.73 324.47 229.89C328.09 232.17 347.64 232.74 354.16 231.23C357.01 230.56 353.16 229.34 347.41 228.45C345.662 228.089 343.891 227.852 342.11 227.74C338.64 227.33 334.96 226.98 331.62 226.74C325.465 226.219 319.276 226.212 313.12 226.72Z" stroke="#40ACB2" stroke-width="2.27" stroke-miterlimit="10"/>
        </g>
    </g>
    <path fill-rule="evenodd" clip-rule="evenodd" d="M270 20.13H247.39C246.376 20.1352 245.405 20.5404 244.688 21.2576C243.97 21.9747 243.565 22.9458 243.56 23.96V46.59C243.563 47.604 243.967 48.5756 244.685 49.2917C245.403 50.0078 246.376 50.41 247.39 50.41H270C271.014 50.41 271.987 50.0078 272.705 49.2917C273.423 48.5756 273.827 47.604 273.83 46.59V24C273.825 22.9858 273.42 22.0147 272.702 21.2975C271.985 20.5804 271.014 20.1752 270 20.17" fill="#FAB58C"/>
    <path fill-rule="evenodd" clip-rule="evenodd" d="M269.78 20.74H247.63C246.713 20.7426 245.835 21.108 245.186 21.7563C244.538 22.4046 244.173 23.2831 244.17 24.2V46.35C244.173 47.2668 244.538 48.1453 245.186 48.7936C245.835 49.4419 246.713 49.8073 247.63 49.81H269.78C270.697 49.8073 271.575 49.4419 272.224 48.7936C272.872 48.1453 273.237 47.2668 273.24 46.35V24.2C273.237 23.2831 272.872 22.4046 272.224 21.7563C271.575 21.108 270.697 20.7426 269.78 20.74Z" fill="#E34B25"/>
    <path fill-rule="evenodd" clip-rule="evenodd" d="M273.24 46.44H244.17C244.198 47.3403 244.575 48.1945 245.22 48.823C245.865 49.4515 246.729 49.8052 247.63 49.81H269.78C270.681 49.8052 271.545 49.4515 272.19 48.823C272.835 48.1945 273.212 47.3403 273.24 46.44Z" fill="#94341F"/>
    <path fill-rule="evenodd" clip-rule="evenodd" d="M273.24 45.94H244.17V46.35C244.169 46.9442 244.322 47.5285 244.615 48.0457C244.908 48.5628 245.33 48.995 245.84 49.3H271.57C272.079 48.9936 272.5 48.561 272.792 48.0442C273.085 47.5274 273.239 46.9438 273.24 46.35V45.94Z" fill="#963420"/>
    <path fill-rule="evenodd" clip-rule="evenodd" d="M273.24 45.43H244.17V46.34C244.166 47.2597 244.526 48.1438 245.17 48.8H272.17C272.49 48.476 272.744 48.0919 272.915 47.6697C273.087 47.2475 273.174 46.7957 273.17 46.34L273.24 45.43Z" fill="#983420"/>
    <path fill-rule="evenodd" clip-rule="evenodd" d="M273.24 44.93H244.17V46.35C244.171 47.0469 244.383 47.727 244.78 48.3H272.63C273.027 47.727 273.239 47.0469 273.24 46.35V44.93Z" fill="#983520"/>
    <path fill-rule="evenodd" clip-rule="evenodd" d="M273.24 44.43H244.17V46.35C244.17 46.8476 244.279 47.3392 244.49 47.79H272.92C273.131 47.3392 273.24 46.8476 273.24 46.35V44.43Z" fill="#993521"/>
    <path fill-rule="evenodd" clip-rule="evenodd" d="M273.24 43.92H244.17V46.35C244.168 46.6679 244.212 46.9845 244.3 47.29H273.11C273.198 46.9845 273.242 46.6679 273.24 46.35V43.92Z" fill="#9C3621"/>
    <path fill-rule="evenodd" clip-rule="evenodd" d="M273.24 43.42H244.17V46.35C244.16 46.4931 244.16 46.6368 244.17 46.78H273.17C273.18 46.6368 273.18 46.4931 273.17 46.35L273.24 43.42Z" fill="#9C3621"/>
    <path d="M273.24 42.92H244.17V46.29H273.24V42.92Z" fill="#9F3722"/>
    <path d="M273.24 42.41H244.17V45.78H273.24V42.41Z" fill="#A03722"/>
    <path d="M273.24 41.91H244.17V45.28H273.24V41.91Z" fill="#A13822"/>
    <path d="M273.24 41.4H244.17V44.77H273.24V41.4Z" fill="#A33723"/>
    <path d="M273.24 40.9H244.17V44.27H273.24V40.9Z" fill="#A43823"/>
    <path d="M273.24 40.4H244.17V43.77H273.24V40.4Z" fill="#A63923"/>
    <path d="M273.24 39.89H244.17V43.26H273.24V39.89Z" fill="#A83A24"/>
    <path d="M273.24 39.39H244.17V42.76H273.24V39.39Z" fill="#A93A24"/>
    <path d="M273.24 38.88H244.17V42.25H273.24V38.88Z" fill="#AB3B24"/>
    <path d="M273.24 38.38H244.17V41.75H273.24V38.38Z" fill="#AD3C25"/>
    <path d="M273.24 37.88H244.17V41.25H273.24V37.88Z" fill="#AE3C25"/>
    <path d="M273.24 37.37H244.17V40.74H273.24V37.37Z" fill="#B03D25"/>
    <path d="M273.24 36.87H244.17V40.24H273.24V36.87Z" fill="#B13D25"/>
    <path d="M273.24 36.36H244.17V39.73H273.24V36.36Z" fill="#B23E25"/>
    <path d="M273.24 35.86H244.17V39.23H273.24V35.86Z" fill="#B53D26"/>
    <path d="M273.24 35.36H244.17V38.73H273.24V35.36Z" fill="#B63E26"/>
    <path d="M273.24 34.85H244.17V38.22H273.24V34.85Z" fill="#B83E26"/>
    <path d="M273.24 34.35H244.17V37.72H273.24V34.35Z" fill="#B93F26"/>
    <path d="M273.24 33.84H244.17V37.21H273.24V33.84Z" fill="#B93E26"/>
    <path d="M273.24 33.34H244.17V36.71H273.24V33.34Z" fill="#BD3F27"/>
    <path d="M273.24 32.84H244.17V36.21H273.24V32.84Z" fill="#BD3F27"/>
    <path d="M273.24 32.33H244.17V35.7H273.24V32.33Z" fill="#BF4027"/>
    <path d="M273.24 31.83H244.17V35.2H273.24V31.83Z" fill="#C04027"/>
    <path d="M273.24 31.32H244.17V34.69H273.24V31.32Z" fill="#C24127"/>
    <path d="M273.24 30.82H244.17V34.19H273.24V30.82Z" fill="#C44127"/>
    <path d="M273.24 30.32H244.17V33.69H273.24V30.32Z" fill="#C54227"/>
    <path d="M273.24 29.81H244.17V33.18H273.24V29.81Z" fill="#C64327"/>
    <path d="M273.24 29.31H244.17V32.68H273.24V29.31Z" fill="#C94427"/>
    <path d="M273.24 28.8H244.17V32.17H273.24V28.8Z" fill="#CA4427"/>
    <path d="M273.24 28.3H244.17V31.67H273.24V28.3Z" fill="#CA4427"/>
    <path d="M273.24 27.8H244.17V31.17H273.24V27.8Z" fill="#CC4527"/>
    <path d="M273.24 27.29H244.17V30.66H273.24V27.29Z" fill="#CF4527"/>
    <path d="M273.24 26.79H244.17V30.16H273.24V26.79Z" fill="#D14527"/>
    <path d="M273.24 26.28H244.17V29.65H273.24V26.28Z" fill="#D24527"/>
    <path d="M273.24 25.78H244.17V29.15H273.24V25.78Z" fill="#D24627"/>
    <path d="M273.24 25.28H244.17V28.65H273.24V25.28Z" fill="#D54627"/>
    <path d="M273.24 24.77H244.17V28.14H273.24V24.77Z" fill="#D64727"/>
    <path d="M273.24 24.27H244.17V27.64H273.24V24.27Z" fill="#D74727"/>
    <path fill-rule="evenodd" clip-rule="evenodd" d="M273.21 23.76H244.21C244.2 23.9065 244.2 24.0535 244.21 24.2V27.13H273.28V24.2C273.29 24.0535 273.29 23.9065 273.28 23.76" fill="#D94726"/>
    <path fill-rule="evenodd" clip-rule="evenodd" d="M273.11 23.26H244.3C244.212 23.5655 244.168 23.882 244.17 24.2V26.63H273.24V24.2C273.237 23.8824 273.193 23.5665 273.11 23.26Z" fill="#DB4726"/>
    <path fill-rule="evenodd" clip-rule="evenodd" d="M272.92 22.76H244.49C244.279 23.2108 244.17 23.7023 244.17 24.2V26.12H273.24V24.2C273.239 23.7025 273.13 23.2111 272.92 22.76Z" fill="#DD4A26"/>
    <path fill-rule="evenodd" clip-rule="evenodd" d="M272.63 22.25H244.78C244.381 22.8218 244.168 23.5027 244.17 24.2V25.62H273.24V24.2C273.242 23.5027 273.029 22.8218 272.63 22.25Z" fill="#DE4A26"/>
    <path fill-rule="evenodd" clip-rule="evenodd" d="M272.21 21.75H245.21C244.889 22.0714 244.635 22.4537 244.463 22.8743C244.292 23.295 244.206 23.7457 244.21 24.2V25.11H273.28V24.2C273.284 23.7457 273.198 23.295 273.027 22.8743C272.855 22.4537 272.601 22.0714 272.28 21.75" fill="#DF4B26"/>
    <path fill-rule="evenodd" clip-rule="evenodd" d="M271.57 21.24H245.84C245.325 21.5515 244.899 21.9921 244.607 22.5182C244.314 23.0444 244.163 23.6378 244.17 24.24V24.65H273.24V24.24C273.245 23.6382 273.093 23.0455 272.801 22.5197C272.508 21.9939 272.084 21.5529 271.57 21.24Z" fill="#E04B26"/>
    <path fill-rule="evenodd" clip-rule="evenodd" d="M269.78 20.74H247.63C246.729 20.7447 245.865 21.0985 245.22 21.727C244.575 22.3555 244.198 23.2096 244.17 24.11H273.24C273.212 23.2096 272.835 22.3555 272.19 21.727C271.545 21.0985 270.681 20.7447 269.78 20.74Z" fill="#E34B25"/>
    <path d="M270.18 27.91H247.23V30.58H270.18V27.91Z" fill="white"/>
    <path d="M270.18 42.64H250.68V41.27L252.38 39.57L250.68 37.87V33.32H270.18V42.64ZM250.68 42.64H247.22V33.32H250.68V37.88L248.98 39.58L250.68 41.28V42.64Z" fill="white"/>
    <path fill-rule="evenodd" clip-rule="evenodd" d="M145.54 6.99997H130.8C130.141 7.0052 129.511 7.26921 129.045 7.73505C128.579 8.20088 128.315 8.83119 128.31 9.48996V24.2C128.313 24.8596 128.576 25.4914 129.042 25.9578C129.509 26.4242 130.14 26.6873 130.8 26.69H145.54C146.194 26.6795 146.818 26.4129 147.278 25.9473C147.738 25.4817 147.997 24.8544 148 24.2V9.45996C147.995 8.80119 147.731 8.17088 147.265 7.70505C146.799 7.23921 146.169 6.9752 145.51 6.96997" fill="#C1D362"/>
    <path fill-rule="evenodd" clip-rule="evenodd" d="M145.38 7.36996H131C130.403 7.37257 129.831 7.61014 129.408 8.03125C128.985 8.45236 128.745 9.02312 128.74 9.61996V24C128.737 24.2994 128.794 24.5964 128.906 24.874C129.018 25.1517 129.184 25.4045 129.394 25.618C129.604 25.8316 129.853 26.0018 130.129 26.1188C130.405 26.2358 130.701 26.2973 131 26.3H145.42C146.018 26.2973 146.59 26.058 147.012 25.6345C147.433 25.2109 147.67 24.6376 147.67 24.04V9.61996C147.67 9.32449 147.612 9.03192 147.499 8.75894C147.386 8.48596 147.22 8.23792 147.011 8.02899C146.802 7.82006 146.554 7.6543 146.281 7.54123C146.008 7.42816 145.715 7.36996 145.42 7.36996" fill="#84B140"/>
    <path fill-rule="evenodd" clip-rule="evenodd" d="M147.63 24.11H128.71C128.728 24.7024 128.979 25.2639 129.407 25.6735C129.835 26.0832 130.407 26.3081 131 26.3H145.42C146.006 26.2953 146.568 26.0652 146.988 25.6574C147.409 25.2496 147.657 24.6955 147.68 24.11" fill="#557133"/>
    <path fill-rule="evenodd" clip-rule="evenodd" d="M147.64 23.78H128.71V24C128.71 24.3872 128.809 24.7681 128.998 25.1061C129.187 25.4441 129.46 25.7278 129.79 25.93H146.55C146.88 25.7268 147.153 25.4432 147.344 25.1056C147.535 24.7681 147.637 24.3876 147.64 24V23.78Z" fill="#567234"/>
    <path fill-rule="evenodd" clip-rule="evenodd" d="M147.64 23.45H128.71V24C128.71 24.5995 128.947 25.1747 129.37 25.6H147C147.212 25.3912 147.381 25.1422 147.496 24.8675C147.611 24.5927 147.67 24.2978 147.67 24L147.64 23.45Z" fill="#577434"/>
    <path fill-rule="evenodd" clip-rule="evenodd" d="M147.64 23.12H128.71V24C128.705 24.4535 128.842 24.8972 129.1 25.27H147.24C147.501 24.8981 147.641 24.4545 147.64 24V23.12Z" fill="#587534"/>
    <path fill-rule="evenodd" clip-rule="evenodd" d="M147.64 22.79H128.71V24C128.71 24.3239 128.778 24.6442 128.91 24.94H147.43C147.57 24.6466 147.642 24.3252 147.64 24V22.79Z" fill="#587635"/>
    <path fill-rule="evenodd" clip-rule="evenodd" d="M147.64 22.46H128.71V24C128.706 24.2094 128.733 24.4183 128.79 24.62H147.55C147.61 24.4188 147.64 24.2099 147.64 24V22.46Z" fill="#587836"/>
    <path fill-rule="evenodd" clip-rule="evenodd" d="M147.64 22.14H128.71V24C128.705 24.0966 128.705 24.1934 128.71 24.29H147.6C147.61 24.1936 147.61 24.0964 147.6 24L147.64 22.14Z" fill="#5A7936"/>
    <path d="M147.64 21.81H128.71V24H147.64V21.81Z" fill="#5A7A36"/>
    <path d="M147.64 21.48H128.71V23.67H147.64V21.48Z" fill="#5B7B37"/>
    <path d="M147.64 21.15H128.71V23.34H147.64V21.15Z" fill="#5C7C37"/>
    <path d="M147.64 20.82H128.71V23.01H147.64V20.82Z" fill="#5C7E38"/>
    <path d="M147.64 20.5H128.71V22.69H147.64V20.5Z" fill="#5D8039"/>
    <path d="M147.64 20.17H128.71V22.36H147.64V20.17Z" fill="#5E8139"/>
    <path d="M147.64 19.84H128.71V22.03H147.64V19.84Z" fill="#5F8239"/>
    <path d="M147.64 19.51H128.71V21.7H147.64V19.51Z" fill="#618339"/>
    <path d="M147.64 19.18H128.71V21.37H147.64V19.18Z" fill="#618339"/>
    <path d="M147.64 18.85H128.71V21.04H147.64V18.85Z" fill="#61853A"/>
    <path d="M147.64 18.53H128.71V20.72H147.64V18.53Z" fill="#63873A"/>
    <path d="M147.64 18.2H128.71V20.39H147.64V18.2Z" fill="#63883B"/>
    <path d="M147.64 17.87H128.71V20.06H147.64V17.87Z" fill="#63893B"/>
    <path d="M147.64 17.54H128.71V19.73H147.64V17.54Z" fill="#668A3B"/>
    <path d="M147.64 17.21H128.71V19.4H147.64V17.21Z" fill="#658B3C"/>
    <path d="M147.64 16.89H128.71V19.08H147.64V16.89Z" fill="#678C3C"/>
    <path d="M147.64 16.56H128.71V18.75H147.64V16.56Z" fill="#688E3C"/>
    <path d="M147.64 16.23H128.71V18.42H147.64V16.23Z" fill="#698F3C"/>
    <path d="M147.64 15.9H128.71V18.09H147.64V15.9Z" fill="#69903D"/>
    <path d="M147.64 15.57H128.71V17.76H147.64V15.57Z" fill="#6B913D"/>
    <path d="M147.64 15.24H128.71V17.43H147.64V15.24Z" fill="#6D923D"/>
    <path d="M147.64 14.91H128.71V17.1H147.64V14.91Z" fill="#6E933D"/>
    <path d="M147.64 14.59H128.71V16.78H147.64V14.59Z" fill="#6D963E"/>
    <path d="M147.64 14.26H128.71V16.45H147.64V14.26Z" fill="#6E973E"/>
    <path d="M147.64 13.93H128.71V16.12H147.64V13.93Z" fill="#6F993F"/>
    <path d="M147.64 13.6H128.71V15.79H147.64V13.6Z" fill="#70993E"/>
    <path d="M147.64 13.27H128.71V15.46H147.64V13.27Z" fill="#72993E"/>
    <path d="M147.64 12.95H128.71V15.14H147.64V12.95Z" fill="#739B3F"/>
    <path d="M147.64 12.62H128.71V14.81H147.64V12.62Z" fill="#739C3F"/>
    <path d="M147.64 12.29H128.71V14.48H147.64V12.29Z" fill="#739D3F"/>
    <path d="M147.64 11.96H128.71V14.15H147.64V11.96Z" fill="#759F3F"/>
    <path d="M147.64 11.63H128.71V13.82H147.64V11.63Z" fill="#75A040"/>
    <path d="M147.64 11.31H128.71V13.5H147.64V11.31Z" fill="#76A140"/>
    <path d="M147.64 10.98H128.71V13.17H147.64V10.98Z" fill="#77A240"/>
    <path d="M147.64 10.65H128.71V12.84H147.64V10.65Z" fill="#79A340"/>
    <path d="M147.64 10.32H128.71V12.51H147.64V10.32Z" fill="#7AA640"/>
    <path d="M147.64 9.98996H128.71V12.18H147.64V9.98996Z" fill="#7AA740"/>
    <path d="M147.64 9.65997H128.71V11.85H147.64V9.65997Z" fill="#7BA840"/>
    <path fill-rule="evenodd" clip-rule="evenodd" d="M147.61 9.33997H128.72C128.715 9.43323 128.715 9.5267 128.72 9.61996V11.53H147.65V9.61996C147.655 9.52671 147.655 9.43322 147.65 9.33997" fill="#7CA940"/>
    <path fill-rule="evenodd" clip-rule="evenodd" d="M147.55 8.99997H128.79C128.733 9.19824 128.706 9.40379 128.71 9.60995V11.19H147.64V9.60995C147.64 9.40001 147.61 9.19115 147.55 8.98996" fill="#7FAA40"/>
    <path fill-rule="evenodd" clip-rule="evenodd" d="M147.43 8.67996H128.91C128.779 8.97599 128.711 9.29614 128.71 9.61996V10.87H147.64V9.61996C147.642 9.29478 147.57 8.97338 147.43 8.67996Z" fill="#80AD40"/>
    <path fill-rule="evenodd" clip-rule="evenodd" d="M147.24 8.34998H129.1C128.843 8.72329 128.707 9.16665 128.71 9.61996V10.54H147.64V9.61996C147.64 9.16568 147.5 8.72241 147.24 8.34998Z" fill="#81AE40"/>
    <path fill-rule="evenodd" clip-rule="evenodd" d="M147 7.99997H129.4C128.977 8.42521 128.74 9.00041 128.74 9.59998V10.2H147.67V9.59998C147.67 9.30213 147.611 9.00721 147.496 8.73248C147.381 8.45775 147.212 8.20873 147 7.99997Z" fill="#82AF40"/>
    <path fill-rule="evenodd" clip-rule="evenodd" d="M146.55 7.68997H129.79C129.46 7.89218 129.187 8.17586 128.998 8.51382C128.809 8.85179 128.71 9.23269 128.71 9.61996V9.88998H147.64V9.61996C147.637 9.2323 147.535 8.85188 147.344 8.51431C147.153 8.17675 146.88 7.89311 146.55 7.68997Z" fill="#83B040"/>
    <path fill-rule="evenodd" clip-rule="evenodd" d="M145.38 7.36996H131C130.414 7.36976 129.85 7.59856 129.43 8.00763C129.01 8.4167 128.766 8.97369 128.75 9.55997H147.67C147.654 8.97369 147.41 8.4167 146.99 8.00763C146.57 7.59856 146.006 7.36976 145.42 7.36996" fill="#84B140"/>
    <path d="M138.17 10.6C139.822 10.6 141.407 11.2563 142.575 12.4247C143.744 13.593 144.4 15.1777 144.4 16.83C144.4 18.4823 143.744 20.0669 142.575 21.2352C141.407 22.4036 139.822 23.06 138.17 23.06V18.62L141.36 20.02L139.36 15.59L138.12 15.05L138.17 10.6ZM138.17 23.06C137.352 23.0711 136.54 22.921 135.779 22.6183C135.019 22.3155 134.326 21.866 133.74 21.2953C132.555 20.1429 131.877 18.5673 131.855 16.915C131.832 15.2627 132.467 13.6691 133.62 12.4848C134.772 11.3005 136.348 10.6225 138 10.6H138.16V15.05L134.98 13.65L136.92 18.07L138.16 18.62L138.17 23.06Z" fill="white"/>
    <path fill-rule="evenodd" clip-rule="evenodd" d="M99.32 14.88H84.24C83.5654 14.8826 82.9194 15.1524 82.4434 15.6304C81.9673 16.1083 81.7 16.7554 81.7 17.43V32.51C81.7026 33.1837 81.9707 33.8293 82.4462 34.3067C82.9217 34.784 83.5662 35.0547 84.24 35.06H99.32C99.9955 35.0573 100.643 34.7878 101.12 34.3102C101.598 33.8325 101.867 33.1855 101.87 32.51V17.43C101.87 16.7537 101.601 16.1051 101.123 15.6269C100.645 15.1486 99.9963 14.88 99.32 14.88Z" fill="#A98CC0"/>
    <path fill-rule="evenodd" clip-rule="evenodd" d="M99.16 15.28H84.4C83.7899 15.2852 83.2064 15.5306 82.7759 15.963C82.3455 16.3953 82.1026 16.9798 82.1 17.59V32.35C82.1 32.96 82.3423 33.545 82.7737 33.9763C83.205 34.4077 83.79 34.65 84.4 34.65H99.16C99.7709 34.65 100.357 34.408 100.79 33.9769C101.223 33.5459 101.467 32.9609 101.47 32.35V17.59C101.465 16.9789 101.22 16.3944 100.788 15.9623C100.356 15.5302 99.771 15.2852 99.16 15.28Z" fill="#573B8F"/>
    <path fill-rule="evenodd" clip-rule="evenodd" d="M101.47 32.41H82.1C82.1181 33.0087 82.3681 33.5769 82.7972 33.9948C83.2263 34.4128 83.801 34.6476 84.4 34.65H99.16C99.7582 34.6452 100.331 34.4095 100.76 33.9921C101.189 33.5747 101.439 33.0079 101.46 32.41" fill="#3A2C79"/>
    <path fill-rule="evenodd" clip-rule="evenodd" d="M101.47 32.07H82.1V32.35C82.0955 32.751 82.1955 33.1463 82.3901 33.497C82.5847 33.8477 82.8673 34.1417 83.21 34.35H100.36C100.703 34.1417 100.985 33.8477 101.18 33.497C101.375 33.1463 101.475 32.751 101.47 32.35V32.07Z" fill="#3B2C79"/>
    <path fill-rule="evenodd" clip-rule="evenodd" d="M101.47 31.74H82.1V32.35C82.1029 32.9617 82.3473 33.5475 82.78 33.98H100.78C101.215 33.5486 101.463 32.9629 101.47 32.35V31.74Z" fill="#3B2D7C"/>
    <path fill-rule="evenodd" clip-rule="evenodd" d="M101.47 31.4H82.1V32.34C82.1004 32.8035 82.2398 33.2563 82.5 33.64H101.06C101.32 33.2563 101.46 32.8035 101.46 32.34L101.47 31.4Z" fill="#3B2D7C"/>
    <path fill-rule="evenodd" clip-rule="evenodd" d="M101.47 31.07H82.1V32.35C82.0934 32.6949 82.1652 33.0368 82.31 33.35H101.31C101.455 33.0368 101.527 32.6949 101.52 32.35L101.47 31.07Z" fill="#3C2D7D"/>
    <path fill-rule="evenodd" clip-rule="evenodd" d="M101.47 30.73H82.1V32.35C82.0997 32.5599 82.13 32.7688 82.19 32.97H101.38C101.44 32.7688 101.47 32.5599 101.47 32.35V30.73Z" fill="#3E2D7D"/>
    <path fill-rule="evenodd" clip-rule="evenodd" d="M101.47 30.39H82.1V32.39C82.1 32.48 82.1 32.58 82.1 32.68H101.43C101.43 32.58 101.43 32.48 101.43 32.39L101.47 30.39Z" fill="#3F2D7D"/>
    <path d="M101.47 30.06H82.1V32.3H101.47V30.06Z" fill="#402D7D"/>
    <path d="M101.47 29.72H82.1V31.96H101.47V29.72Z" fill="#412D7D"/>
    <path d="M101.47 29.39H82.1V31.63H101.47V29.39Z" fill="#422D7E"/>
    <path d="M101.47 29.05H82.1V31.29H101.47V29.05Z" fill="#432E80"/>
    <path d="M101.47 28.72H82.1V30.96H101.47V28.72Z" fill="#442E80"/>
    <path d="M101.47 28.38H82.1V30.62H101.47V28.38Z" fill="#452E80"/>
    <path d="M101.47 28.04H82.1V30.28H101.47V28.04Z" fill="#442E81"/>
    <path d="M101.47 27.71H82.1V29.95H101.47V27.71Z" fill="#452E82"/>
    <path d="M101.47 27.37H82.1V29.61H101.47V27.37Z" fill="#452E82"/>
    <path d="M101.47 27.04H82.1V29.28H101.47V27.04Z" fill="#452E83"/>
    <path d="M101.47 26.7H82.1V28.94H101.47V26.7Z" fill="#462E84"/>
    <path d="M101.47 26.36H82.1V28.6H101.47V26.36Z" fill="#472E84"/>
    <path d="M101.47 26.03H82.1V28.27H101.47V26.03Z" fill="#492E85"/>
    <path d="M101.47 25.69H82.1V27.93H101.47V25.69Z" fill="#492E85"/>
    <path d="M101.47 25.36H82.1V27.6H101.47V25.36Z" fill="#492E85"/>
    <path d="M101.47 25.02H82.1V27.26H101.47V25.02Z" fill="#4A2E86"/>
    <path d="M101.47 24.69H82.1V26.93H101.47V24.69Z" fill="#4A2E86"/>
    <path d="M101.47 24.35H82.1V26.59H101.47V24.35Z" fill="#4A3088"/>
    <path d="M101.47 24.01H82.1V26.25H101.47V24.01Z" fill="#4A3088"/>
    <path d="M101.47 23.68H82.1V25.92H101.47V23.68Z" fill="#4B3188"/>
    <path d="M101.47 23.34H82.1V25.58H101.47V23.34Z" fill="#4C3189"/>
    <path d="M101.47 23.01H82.1V25.25H101.47V23.01Z" fill="#4C3289"/>
    <path d="M101.47 22.67H82.1V24.91H101.47V22.67Z" fill="#4D3289"/>
    <path d="M101.47 22.33H82.1V24.57H101.47V22.33Z" fill="#4E328A"/>
    <path d="M101.47 22H82.1V24.24H101.47V22Z" fill="#4F3289"/>
    <path d="M101.47 21.66H82.1V23.9H101.47V21.66Z" fill="#4F338A"/>
    <path d="M101.47 21.33H82.1V23.57H101.47V21.33Z" fill="#50338A"/>
    <path d="M101.47 20.99H82.1V23.23H101.47V20.99Z" fill="#50348B"/>
    <path d="M101.47 20.66H82.1V22.9H101.47V20.66Z" fill="#50358B"/>
    <path d="M101.47 20.32H82.1V22.56H101.47V20.32Z" fill="#51358B"/>
    <path d="M101.47 19.98H82.1V22.22H101.47V19.98Z" fill="#52358B"/>
    <path d="M101.47 19.65H82.1V21.89H101.47V19.65Z" fill="#52368C"/>
    <path d="M101.47 19.31H82.1V21.55H101.47V19.31Z" fill="#51378C"/>
    <path d="M101.47 18.98H82.1V21.22H101.47V18.98Z" fill="#52378C"/>
    <path d="M101.47 18.64H82.1V20.88H101.47V18.64Z" fill="#52378C"/>
    <path d="M101.47 18.31H82.1V20.55H101.47V18.31Z" fill="#53388D"/>
    <path d="M101.47 17.97H82.1V20.21H101.47V17.97Z" fill="#53388D"/>
    <path d="M101.47 17.63H82.1V19.87H101.47V17.63Z" fill="#53398D"/>
    <path fill-rule="evenodd" clip-rule="evenodd" d="M101.45 17.3H82.12C82.1147 17.3966 82.1147 17.4934 82.12 17.59V19.59H101.49V17.59C101.495 17.4934 101.495 17.3966 101.49 17.3" fill="#55398D"/>
    <path fill-rule="evenodd" clip-rule="evenodd" d="M101.38 17H82.19C82.1307 17.2047 82.1004 17.4168 82.1 17.63V19.24H101.47V17.63C101.47 17.4168 101.439 17.2047 101.38 17Z" fill="#56398E"/>
    <path fill-rule="evenodd" clip-rule="evenodd" d="M101.26 16.63H82.26C82.1152 16.9431 82.0434 17.285 82.05 17.63V18.91H101.42V17.63C101.423 17.2843 101.348 16.9424 101.2 16.63" fill="#56398E"/>
    <path fill-rule="evenodd" clip-rule="evenodd" d="M101.07 16.29H82.5C82.2398 16.6736 82.1004 17.1264 82.1 17.59V18.59H101.47V17.59C101.47 17.1264 101.33 16.6736 101.07 16.29Z" fill="#563A8E"/>
    <path fill-rule="evenodd" clip-rule="evenodd" d="M100.79 16H82.79C82.5736 16.2146 82.4021 16.4702 82.2854 16.7517C82.1687 17.0332 82.109 17.3352 82.11 17.64V18.25H101.47V17.64C101.471 17.3352 101.411 17.0332 101.295 16.7517C101.178 16.4702 101.006 16.2146 100.79 16Z" fill="#563A8E"/>
    <path fill-rule="evenodd" clip-rule="evenodd" d="M100.36 15.62H83.21C82.8666 15.8275 82.5834 16.1213 82.3887 16.4722C82.194 16.8231 82.0944 17.2187 82.0999 17.62V17.89H101.47V17.62C101.473 17.2191 101.373 16.8242 101.179 16.4737C100.984 16.1232 100.702 15.829 100.36 15.62Z" fill="#573B8F"/>
    <path d="M96.51 24.57H94.15V29.69H96.51V24.57Z" fill="white"/>
    <path d="M89.42 20.24H87.06V29.69H89.42V20.24Z" fill="white"/>
    <path d="M92.96 22.61H90.6V29.7H92.96V22.61Z" fill="white"/>
    <path fill-rule="evenodd" clip-rule="evenodd" d="M275.16 129H260.85C260.208 129 259.593 129.255 259.139 129.709C258.685 130.163 258.43 130.778 258.43 131.42V145.7C258.433 146.341 258.688 146.955 259.142 147.408C259.595 147.862 260.209 148.117 260.85 148.12H275.16C275.8 148.115 276.413 147.858 276.865 147.405C277.318 146.953 277.575 146.34 277.58 145.7V131.39C277.577 130.749 277.322 130.135 276.868 129.682C276.415 129.228 275.801 128.973 275.16 128.97" fill="#A98CC0"/>
    <path fill-rule="evenodd" clip-rule="evenodd" d="M275 129.36H261C260.423 129.363 259.87 129.593 259.461 130.001C259.053 130.41 258.823 130.963 258.82 131.54V145.54C258.82 146.119 259.049 146.675 259.458 147.085C259.866 147.495 260.421 147.727 261 147.73H275C275.288 147.73 275.572 147.673 275.838 147.563C276.104 147.453 276.345 147.292 276.549 147.089C276.752 146.885 276.913 146.644 277.023 146.378C277.133 146.112 277.19 145.828 277.19 145.54V131.54C277.187 130.961 276.955 130.406 276.545 129.998C276.135 129.589 275.579 129.36 275 129.36Z" fill="#573B8F"/>
    <path fill-rule="evenodd" clip-rule="evenodd" d="M277.19 145.61H258.81C258.831 146.179 259.07 146.718 259.478 147.114C259.886 147.511 260.431 147.735 261 147.74H275C275.569 147.735 276.114 147.511 276.522 147.114C276.93 146.718 277.169 146.179 277.19 145.61Z" fill="#3A2C79"/>
    <path fill-rule="evenodd" clip-rule="evenodd" d="M277.19 145.29H258.81V145.55C258.811 145.926 258.909 146.296 259.095 146.624C259.28 146.952 259.547 147.226 259.87 147.42H276.14C276.46 147.224 276.724 146.949 276.908 146.622C277.092 146.294 277.189 145.925 277.19 145.55V145.29Z" fill="#3B2C79"/>
    <path fill-rule="evenodd" clip-rule="evenodd" d="M277.19 145H258.81V145.58C258.813 146.162 259.047 146.72 259.46 147.13H276.54C276.746 146.928 276.91 146.687 277.022 146.421C277.134 146.155 277.191 145.869 277.19 145.58V145Z" fill="#3B2D7C"/>
    <path fill-rule="evenodd" clip-rule="evenodd" d="M277.19 144.65H258.81V145.55C258.812 145.99 258.948 146.419 259.2 146.78H276.81C277.059 146.418 277.192 145.989 277.19 145.55V144.65Z" fill="#3B2D7C"/>
    <path fill-rule="evenodd" clip-rule="evenodd" d="M277.19 144.33H258.81V145.55C258.812 145.864 258.88 146.174 259.01 146.46H277.01C277.14 146.174 277.208 145.864 277.21 145.55L277.19 144.33Z" fill="#3C2D7D"/>
    <path fill-rule="evenodd" clip-rule="evenodd" d="M277.19 144H258.81V145.54C258.81 145.74 258.841 145.939 258.9 146.13H277.11C277.162 145.938 277.189 145.739 277.19 145.54V144Z" fill="#3E2D7D"/>
    <path fill-rule="evenodd" clip-rule="evenodd" d="M277.19 143.69H258.81V145.55C258.805 145.64 258.805 145.73 258.81 145.82H277.15C277.16 145.73 277.16 145.64 277.15 145.55L277.19 143.69Z" fill="#3F2D7D"/>
    <path d="M277.19 143.38H258.81V145.51H277.19V143.38Z" fill="#402D7D"/>
    <path d="M277.19 143.06H258.81V145.19H277.19V143.06Z" fill="#412D7D"/>
    <path d="M277.19 142.74H258.81V144.87H277.19V142.74Z" fill="#422D7E"/>
    <path d="M277.19 142.42H258.81V144.55H277.19V142.42Z" fill="#432E80"/>
    <path d="M277.19 142.1H258.81V144.23H277.19V142.1Z" fill="#442E80"/>
    <path d="M277.19 141.78H258.81V143.91H277.19V141.78Z" fill="#452E80"/>
    <path d="M277.19 141.46H258.81V143.59H277.19V141.46Z" fill="#442E81"/>
    <path d="M277.19 141.15H258.81V143.28H277.19V141.15Z" fill="#452E82"/>
    <path d="M277.19 140.83H258.81V142.96H277.19V140.83Z" fill="#452E82"/>
    <path d="M277.19 140.51H258.81V142.64H277.19V140.51Z" fill="#452E83"/>
    <path d="M277.19 140.19H258.81V142.32H277.19V140.19Z" fill="#462E84"/>
    <path d="M277.19 139.87H258.81V142H277.19V139.87Z" fill="#472E84"/>
    <path d="M277.19 139.55H258.81V141.68H277.19V139.55Z" fill="#492E85"/>
    <path d="M277.19 139.23H258.81V141.36H277.19V139.23Z" fill="#492E85"/>
    <path d="M277.19 138.91H258.81V141.04H277.19V138.91Z" fill="#492E85"/>
    <path d="M277.19 138.6H258.81V140.73H277.19V138.6Z" fill="#4A2E86"/>
    <path d="M277.19 138.28H258.81V140.41H277.19V138.28Z" fill="#4A2E86"/>
    <path d="M277.19 137.96H258.81V140.09H277.19V137.96Z" fill="#4A3088"/>
    <path d="M277.19 137.64H258.81V139.77H277.19V137.64Z" fill="#4A3088"/>
    <path d="M277.19 137.32H258.81V139.45H277.19V137.32Z" fill="#4B3188"/>
    <path d="M277.19 137H258.81V139.13H277.19V137Z" fill="#4C3189"/>
    <path d="M277.19 136.68H258.81V138.81H277.19V136.68Z" fill="#4C3289"/>
    <path d="M277.19 136.37H258.81V138.5H277.19V136.37Z" fill="#4D3289"/>
    <path d="M277.19 136.05H258.81V138.18H277.19V136.05Z" fill="#4E328A"/>
    <path d="M277.19 135.73H258.81V137.86H277.19V135.73Z" fill="#4F3289"/>
    <path d="M277.19 135.41H258.81V137.54H277.19V135.41Z" fill="#4F338A"/>
    <path d="M277.19 135.09H258.81V137.22H277.19V135.09Z" fill="#50338A"/>
    <path d="M277.19 134.77H258.81V136.9H277.19V134.77Z" fill="#50348B"/>
    <path d="M277.19 134.45H258.81V136.58H277.19V134.45Z" fill="#50358B"/>
    <path d="M277.19 134.13H258.81V136.26H277.19V134.13Z" fill="#51358B"/>
    <path d="M277.19 133.82H258.81V135.95H277.19V133.82Z" fill="#52358B"/>
    <path d="M277.19 133.5H258.81V135.63H277.19V133.5Z" fill="#52368C"/>
    <path d="M277.19 133.18H258.81V135.31H277.19V133.18Z" fill="#51378C"/>
    <path d="M277.19 132.86H258.81V134.99H277.19V132.86Z" fill="#52378C"/>
    <path d="M277.19 132.54H258.81V134.67H277.19V132.54Z" fill="#52378C"/>
    <path d="M277.19 132.22H258.81V134.35H277.19V132.22Z" fill="#53388D"/>
    <path d="M277.19 131.9H258.81V134.03H277.19V131.9Z" fill="#53388D"/>
    <path d="M277.19 131.59H258.81V133.72H277.19V131.59Z" fill="#53398D"/>
    <path fill-rule="evenodd" clip-rule="evenodd" d="M277.18 131.27H258.83C258.825 131.36 258.825 131.45 258.83 131.54V133.4H277.21V131.54C277.215 131.45 277.215 131.36 277.21 131.27" fill="#55398D"/>
    <path fill-rule="evenodd" clip-rule="evenodd" d="M277.11 131H258.9C258.841 131.194 258.811 131.397 258.81 131.6V133.13H277.19V131.6C277.193 131.397 277.166 131.195 277.11 131Z" fill="#56398E"/>
    <path fill-rule="evenodd" clip-rule="evenodd" d="M277 130.63H259C258.87 130.916 258.802 131.226 258.8 131.54V132.76H277.18V131.54C277.183 131.225 277.115 130.914 276.98 130.63" fill="#56398E"/>
    <path fill-rule="evenodd" clip-rule="evenodd" d="M276.81 130.31H259.2C258.948 130.671 258.812 131.1 258.81 131.54V132.44H277.19V131.54C277.192 131.101 277.059 130.672 276.81 130.31Z" fill="#563A8E"/>
    <path fill-rule="evenodd" clip-rule="evenodd" d="M276.54 130H259.46C259.047 130.41 258.813 130.968 258.81 131.55V132.13H277.19V131.55C277.191 131.261 277.134 130.975 277.022 130.709C276.91 130.443 276.746 130.202 276.54 130Z" fill="#563A8E"/>
    <path fill-rule="evenodd" clip-rule="evenodd" d="M276.14 129.67H259.87C259.549 129.866 259.283 130.14 259.097 130.467C258.912 130.795 258.813 131.164 258.81 131.54V131.8H277.19V131.54C277.189 131.165 277.092 130.796 276.908 130.468C276.724 130.141 276.46 129.866 276.14 129.67Z" fill="#573B8F"/>
    <path fill-rule="evenodd" clip-rule="evenodd" d="M275 129.36H261C260.431 129.36 259.884 129.581 259.476 129.976C259.067 130.372 258.828 130.911 258.81 131.48H277.2C277.179 130.912 276.94 130.374 276.532 129.979C276.123 129.584 275.578 129.362 275.01 129.36" fill="#573B8F"/>
    <path fill-rule="evenodd" clip-rule="evenodd" d="M271.82 132.32H268.55V132.89C268.571 132.89 268.592 132.898 268.607 132.913C268.622 132.928 268.63 132.949 268.63 132.97C268.628 132.989 268.618 133.007 268.603 133.02C268.589 133.033 268.57 133.04 268.55 133.04V133.59H271.82V143.5H268.55V144.77H271.82C272.007 144.77 272.186 144.697 272.319 144.566C272.451 144.435 272.527 144.257 272.53 144.07V133C272.53 132.812 272.455 132.631 272.322 132.498C272.189 132.365 272.008 132.29 271.82 132.29M268.55 132.29H268V132.86H268.16C268.171 132.858 268.182 132.859 268.193 132.863C268.203 132.866 268.213 132.872 268.22 132.88C268.228 132.887 268.234 132.897 268.237 132.907C268.241 132.918 268.242 132.929 268.24 132.94C268.24 132.95 268.238 132.96 268.234 132.969C268.23 132.978 268.224 132.987 268.216 132.993C268.209 133 268.2 133.005 268.19 133.008C268.18 133.011 268.17 133.011 268.16 133.01H268V133.56H268.55V133C268.53 133 268.511 132.993 268.497 132.98C268.482 132.967 268.472 132.949 268.47 132.93C268.47 132.909 268.478 132.888 268.493 132.873C268.508 132.858 268.529 132.85 268.55 132.85V132.29ZM268 144.77H268.55V143.5H268V143.75C268.076 143.763 268.146 143.803 268.196 143.863C268.245 143.922 268.273 143.997 268.273 144.075C268.273 144.153 268.245 144.228 268.196 144.287C268.146 144.347 268.076 144.387 268 144.4V144.77ZM268 132.32H264.18C264.087 132.32 263.995 132.338 263.91 132.374C263.824 132.41 263.747 132.462 263.681 132.529C263.616 132.595 263.565 132.673 263.53 132.759C263.496 132.845 263.479 132.937 263.48 133.03V144.03C263.48 144.122 263.498 144.213 263.533 144.298C263.568 144.383 263.62 144.46 263.685 144.525C263.75 144.59 263.827 144.641 263.912 144.677C263.997 144.712 264.088 144.73 264.18 144.73H268V144.36C267.924 144.346 267.854 144.307 267.804 144.247C267.755 144.188 267.727 144.113 267.727 144.035C267.727 143.957 267.755 143.882 267.804 143.823C267.854 143.763 267.924 143.723 268 143.71V143.46H264.18V133.55H268V133H267.38C267.371 133 267.362 132.998 267.353 132.995C267.345 132.991 267.337 132.986 267.331 132.979C267.324 132.973 267.319 132.965 267.315 132.957C267.312 132.948 267.31 132.939 267.31 132.93C267.309 132.92 267.309 132.91 267.312 132.9C267.315 132.89 267.32 132.881 267.327 132.874C267.333 132.866 267.342 132.86 267.351 132.856C267.36 132.852 267.37 132.85 267.38 132.85H268V132.32Z" fill="white"/>
    <path fill-rule="evenodd" clip-rule="evenodd" d="M73.08 54.33H54.61C53.7833 54.3326 52.9913 54.6622 52.4067 55.2467C51.8222 55.8312 51.4926 56.6233 51.49 57.45V75.92C51.4926 76.7466 51.8222 77.5387 52.4067 78.1232C52.9913 78.7078 53.7833 79.0373 54.61 79.04H73.08C73.9067 79.0373 74.6987 78.7078 75.2833 78.1232C75.8678 77.5387 76.1974 76.7466 76.2 75.92V57.45C76.2 56.6225 75.8713 55.8289 75.2862 55.2438C74.701 54.6587 73.9075 54.33 73.08 54.33Z" fill="#9CD8E1"/>
    <path fill-rule="evenodd" clip-rule="evenodd" d="M72.88 54.83H54.81C54.0621 54.83 53.3448 55.1271 52.8159 55.6559C52.2871 56.1848 51.99 56.9021 51.99 57.65V75.72C51.99 76.4688 52.2868 77.1871 52.8153 77.7176C53.3439 78.248 54.0612 78.5473 54.81 78.55H72.88C73.6289 78.5447 74.3457 78.2449 74.8753 77.7153C75.4049 77.1857 75.7048 76.4689 75.71 75.72V57.65C75.7073 56.9011 75.408 56.1839 74.8776 55.6553C74.3472 55.1267 73.6288 54.83 72.88 54.83Z" fill="#1AB3C1"/>
    <path fill-rule="evenodd" clip-rule="evenodd" d="M75.71 75.8H52C52.0208 76.5348 52.3267 77.2328 52.8531 77.7461C53.3794 78.2594 54.0848 78.5477 54.82 78.55H72.89C73.6262 78.5477 74.3327 78.2598 74.8606 77.7467C75.3886 77.2337 75.6967 76.5357 75.72 75.8" fill="#076B73"/>
    <path fill-rule="evenodd" clip-rule="evenodd" d="M75.71 75.39H52V75.72C52.0035 76.2054 52.1301 76.6821 52.368 77.1053C52.6058 77.5286 52.9471 77.8846 53.36 78.14H74.36C74.7755 77.8874 75.1189 77.5321 75.3571 77.1082C75.5953 76.6843 75.7203 76.2062 75.72 75.72L75.71 75.39Z" fill="#0A6C74"/>
    <path fill-rule="evenodd" clip-rule="evenodd" d="M75.71 75H52V75.74C51.9982 76.1127 52.0717 76.482 52.2161 76.8256C52.3604 77.1693 52.5726 77.4803 52.84 77.74H74.89C75.1574 77.4803 75.3696 77.1693 75.5139 76.8256C75.6583 76.482 75.7318 76.1127 75.73 75.74L75.71 75Z" fill="#0C6E76"/>
    <path fill-rule="evenodd" clip-rule="evenodd" d="M75.71 74.56H52V75.72C51.9982 76.2889 52.1729 76.8445 52.5 77.31H75.23C75.5572 76.8445 75.7319 76.2889 75.73 75.72L75.71 74.56Z" fill="#0B6F77"/>
    <path fill-rule="evenodd" clip-rule="evenodd" d="M75.71 74.16H52V75.72C52.0004 76.1275 52.0891 76.53 52.26 76.9H75.46C75.6309 76.53 75.7196 76.1275 75.72 75.72L75.71 74.16Z" fill="#0E7078"/>
    <path fill-rule="evenodd" clip-rule="evenodd" d="M75.71 73.75H52V75.75C52.0016 76.0104 52.0385 76.2695 52.11 76.52H75.6C75.6714 76.2695 75.7084 76.0104 75.71 75.75V73.75Z" fill="#0E727A"/>
    <path fill-rule="evenodd" clip-rule="evenodd" d="M75.71 73.33H52V75.72C52 75.84 52 75.96 52 76.08H75.68C75.6899 75.9602 75.6899 75.8398 75.68 75.72L75.71 73.33Z" fill="#0C737B"/>
    <path d="M75.71 72.92H51.99V75.67H75.71V72.92Z" fill="#0E747D"/>
    <path d="M75.71 72.51H51.99V75.26H75.71V72.51Z" fill="#0D767E"/>
    <path d="M75.71 72.1H51.99V74.85H75.71V72.1Z" fill="#0D7781"/>
    <path d="M75.71 71.69H51.99V74.44H75.71V71.69Z" fill="#0C7881"/>
    <path d="M75.71 71.28H51.99V74.03H75.71V71.28Z" fill="#0F7B83"/>
    <path d="M75.71 70.87H51.99V73.62H75.71V70.87Z" fill="#0D7C85"/>
    <path d="M75.71 70.45H51.99V73.2H75.71V70.45Z" fill="#107C86"/>
    <path d="M75.71 70.04H51.99V72.79H75.71V70.04Z" fill="#0C7F87"/>
    <path d="M75.71 69.63H51.99V72.38H75.71V69.63Z" fill="#0D8089"/>
    <path d="M75.71 69.22H51.99V71.97H75.71V69.22Z" fill="#0C808B"/>
    <path d="M75.71 68.81H51.99V71.56H75.71V68.81Z" fill="#10838C"/>
    <path d="M75.71 68.4H51.99V71.15H75.71V68.4Z" fill="#0E848C"/>
    <path d="M75.71 67.99H51.99V70.74H75.71V67.99Z" fill="#0E8590"/>
    <path d="M75.71 67.58H51.99V70.33H75.71V67.58Z" fill="#0A8790"/>
    <path d="M75.71 67.16H51.99V69.91H75.71V67.16Z" fill="#098892"/>
    <path d="M75.71 66.75H51.99V69.5H75.71V66.75Z" fill="#058993"/>
    <path d="M75.71 66.34H51.99V69.09H75.71V66.34Z" fill="#078C95"/>
    <path d="M75.71 65.93H51.99V68.68H75.71V65.93Z" fill="#028C97"/>
    <path d="M75.71 65.52H51.99V68.27H75.71V65.52Z" fill="#058D98"/>
    <path d="M75.71 65.11H51.99V67.86H75.71V65.11Z" fill="#07909B"/>
    <path d="M75.71 64.7H51.99V67.45H75.71V64.7Z" fill="#0B929C"/>
    <path d="M75.71 64.28H51.99V67.03H75.71V64.28Z" fill="#0A929F"/>
    <path d="M75.71 63.87H51.99V66.62H75.71V63.87Z" fill="#0B95A0"/>
    <path d="M75.71 63.46H51.99V66.21H75.71V63.46Z" fill="#1096A1"/>
    <path d="M75.71 63.05H51.99V65.8H75.71V63.05Z" fill="#0B97A3"/>
    <path d="M75.71 62.64H51.99V65.39H75.71V62.64Z" fill="#0E99A4"/>
    <path d="M75.71 62.23H51.99V64.98H75.71V62.23Z" fill="#0F9AA6"/>
    <path d="M75.71 61.82H51.99V64.57H75.71V61.82Z" fill="#0E9BA7"/>
    <path d="M75.71 61.41H51.99V64.16H75.71V61.41Z" fill="#0D9DA8"/>
    <path d="M75.71 61H51.99V63.75H75.71V61Z" fill="#0A9EAB"/>
    <path d="M75.71 60.58H51.99V63.33H75.71V60.58Z" fill="#0B9FAC"/>
    <path d="M75.71 60.17H51.99V62.92H75.71V60.17Z" fill="#08A1AE"/>
    <path d="M75.71 59.76H51.99V62.51H75.71V59.76Z" fill="#09A2AF"/>
    <path d="M75.71 59.35H51.99V62.1H75.71V59.35Z" fill="#0AA3AF"/>
    <path d="M75.71 58.94H51.99V61.69H75.71V58.94Z" fill="#0DA6B2"/>
    <path d="M75.71 58.53H51.99V61.28H75.71V58.53Z" fill="#09A7B4"/>
    <path d="M75.71 58.12H51.99V60.87H75.71V58.12Z" fill="#0AA8B5"/>
    <path d="M75.71 57.7H51.99V60.45H75.71V57.7Z" fill="#0BAAB6"/>
    <path fill-rule="evenodd" clip-rule="evenodd" d="M75.68 57.29H52C51.99 57.4098 51.99 57.5302 52 57.65V60H75.72V57.61C75.72 57.49 75.72 57.37 75.72 57.25" fill="#07ABB9"/>
    <path fill-rule="evenodd" clip-rule="evenodd" d="M75.6 56.88H52.09C52.0218 57.1309 51.9882 57.3899 51.99 57.65V59.65H75.71V57.65C75.7084 57.3895 75.6715 57.1305 75.6 56.88Z" fill="#07ACBA"/>
    <path fill-rule="evenodd" clip-rule="evenodd" d="M75.45 56.47H52.25C52.0791 56.8399 51.9904 57.2425 51.99 57.65V59.22H75.71V57.65C75.7096 57.2425 75.6209 56.8399 75.45 56.47Z" fill="#0CB0BD"/>
    <path fill-rule="evenodd" clip-rule="evenodd" d="M75.21 56.06H52.48C52.1605 56.5286 51.9897 57.0827 51.99 57.65V58.81H75.71V57.65C75.7118 57.081 75.5371 56.5255 75.21 56.06Z" fill="#13B1BF"/>
    <path fill-rule="evenodd" clip-rule="evenodd" d="M74.87 55.65H52.82C52.2891 56.1802 51.9906 56.8996 51.99 57.65V58.39H75.71V57.65C75.71 57.2775 75.6358 56.9087 75.4915 56.5653C75.3473 56.2219 75.136 55.9107 74.87 55.65Z" fill="#17B2BF"/>
    <path fill-rule="evenodd" clip-rule="evenodd" d="M74.35 55.24H53.35C52.9341 55.4904 52.5896 55.8437 52.3497 56.2657C52.1098 56.6878 51.9825 57.1645 51.98 57.65V58H75.71V57.67C75.7095 57.1853 75.5842 56.7088 75.3459 56.2867C75.1077 55.8645 74.7647 55.5109 74.35 55.26" fill="#19B2C0"/>
    <path fill-rule="evenodd" clip-rule="evenodd" d="M72.88 54.83H54.81C54.0757 54.8297 53.3703 55.1158 52.8437 55.6274C52.3171 56.1391 52.0108 56.836 51.99 57.57H75.71C75.6841 56.836 75.3749 56.1405 74.8472 55.6296C74.3196 55.1187 73.6145 54.8321 72.88 54.83Z" fill="#1AB3C1"/>
    <path d="M69.18 59.92L70.74 62.92L72.5 64.84V72.84C72.5 73.0521 72.4157 73.2556 72.2657 73.4057C72.1157 73.5557 71.9122 73.64 71.7 73.64H69.18V69.44H70.93V67.61H69.18V63.74H69.6L69.18 62.93V59.92ZM63.75 59.77H69.1L69.18 59.92V62.92L68.13 60.92H63.75V59.77ZM69.18 73.64C68.9678 73.64 68.7643 73.5557 68.6143 73.4057C68.4643 73.2556 68.38 73.0521 68.38 72.84V70.84H63.79V63.74H69.22V67.61H67.48V69.45H69.22L69.18 73.64ZM58.33 59.92L58.41 59.77H63.75V60.9H59.37L58.37 62.9L58.33 59.92ZM63.75 70.84H59.17V72.84C59.17 73.0521 59.0857 73.2556 58.9357 73.4057C58.7857 73.5557 58.5822 73.64 58.37 73.64V69.44H60.11V67.61H58.37V63.74H63.79L63.75 70.84ZM55.01 64.84L56.77 62.92L58.33 59.92V62.92L57.91 63.73H58.33V67.61H56.58V69.45H58.33V73.64H55.81C55.5978 73.64 55.3944 73.5557 55.2443 73.4057C55.0943 73.2556 55.01 73.0521 55.01 72.84V64.84Z" fill="white"/>
    <path fill-rule="evenodd" clip-rule="evenodd" d="M124.71 108.5H113.33C112.821 108.505 112.334 108.711 111.975 109.072C111.615 109.433 111.413 109.921 111.41 110.43V121.8C111.41 122.309 111.612 122.798 111.972 123.158C112.332 123.518 112.821 123.72 113.33 123.72H124.71C125.218 123.717 125.705 123.514 126.065 123.155C126.424 122.795 126.627 122.308 126.63 121.8V110.43C126.627 109.921 126.425 109.433 126.065 109.072C125.706 108.711 125.219 108.505 124.71 108.5Z" fill="#A98CC0"/>
    <path fill-rule="evenodd" clip-rule="evenodd" d="M124.58 108.81H113.45C112.989 108.81 112.546 108.993 112.22 109.32C111.893 109.646 111.71 110.088 111.71 110.55V121.68C111.71 122.141 111.893 122.584 112.22 122.91C112.546 123.237 112.989 123.42 113.45 123.42H124.58C125.041 123.42 125.484 123.237 125.81 122.91C126.137 122.584 126.32 122.141 126.32 121.68V110.55C126.32 110.088 126.137 109.646 125.81 109.32C125.484 108.993 125.041 108.81 124.58 108.81Z" fill="#573B8F"/>
    <path fill-rule="evenodd" clip-rule="evenodd" d="M126.32 121.73H111.71C111.721 122.184 111.909 122.615 112.234 122.931C112.56 123.247 112.996 123.423 113.45 123.42H124.58C125.033 123.42 125.468 123.244 125.793 122.928C126.118 122.613 126.307 122.183 126.32 121.73Z" fill="#3A2C79"/>
    <path fill-rule="evenodd" clip-rule="evenodd" d="M126.32 121.47H111.71V121.68C111.711 121.979 111.788 122.274 111.936 122.535C112.083 122.795 112.294 123.014 112.55 123.17H125.48C125.736 123.014 125.947 122.795 126.094 122.535C126.241 122.274 126.319 121.979 126.32 121.68V121.47Z" fill="#3B2C79"/>
    <path fill-rule="evenodd" clip-rule="evenodd" d="M126.32 121.22H111.71V121.68C111.709 121.909 111.754 122.135 111.841 122.346C111.929 122.558 112.057 122.749 112.22 122.91H125.81C125.973 122.749 126.101 122.558 126.189 122.346C126.276 122.135 126.321 121.909 126.32 121.68V121.22Z" fill="#3B2D7C"/>
    <path fill-rule="evenodd" clip-rule="evenodd" d="M126.32 121H111.71V121.71C111.704 122.066 111.809 122.416 112.01 122.71H126.01C126.207 122.414 126.312 122.066 126.31 121.71L126.32 121Z" fill="#3B2D7C"/>
    <path fill-rule="evenodd" clip-rule="evenodd" d="M126.32 120.71H111.71V121.71C111.708 121.962 111.763 122.212 111.87 122.44H126.16C126.267 122.212 126.322 121.962 126.32 121.71V120.71Z" fill="#3C2D7D"/>
    <path fill-rule="evenodd" clip-rule="evenodd" d="M126.32 120.46H111.71V121.68C111.71 121.839 111.73 121.997 111.77 122.15H126.25C126.298 121.998 126.322 121.839 126.32 121.68V120.46Z" fill="#3E2D7D"/>
    <path fill-rule="evenodd" clip-rule="evenodd" d="M126.32 120.2H111.71V121.68C111.705 121.753 111.705 121.827 111.71 121.9H126.3C126.305 121.827 126.305 121.753 126.3 121.68L126.32 120.2Z" fill="#3F2D7D"/>
    <path d="M126.32 119.95H111.71V121.64H126.32V119.95Z" fill="#402D7D"/>
    <path d="M126.32 119.7H111.71V121.39H126.32V119.7Z" fill="#412D7D"/>
    <path d="M126.32 119.45H111.71V121.14H126.32V119.45Z" fill="#422D7E"/>
    <path d="M126.32 119.2H111.71V120.89H126.32V119.2Z" fill="#432E80"/>
    <path d="M126.32 118.94H111.71V120.63H126.32V118.94Z" fill="#442E80"/>
    <path d="M126.32 118.69H111.71V120.38H126.32V118.69Z" fill="#452E80"/>
    <path d="M126.32 118.43H111.71V120.12H126.32V118.43Z" fill="#442E81"/>
    <path d="M126.32 118.18H111.71V119.87H126.32V118.18Z" fill="#452E82"/>
    <path d="M126.32 117.93H111.71V119.62H126.32V117.93Z" fill="#452E82"/>
    <path d="M126.32 117.68H111.71V119.37H126.32V117.68Z" fill="#452E83"/>
    <path d="M126.32 117.42H111.71V119.11H126.32V117.42Z" fill="#462E84"/>
    <path d="M126.32 117.17H111.71V118.86H126.32V117.17Z" fill="#472E84"/>
    <path d="M126.32 116.91H111.71V118.6H126.32V116.91Z" fill="#492E85"/>
    <path d="M126.32 116.66H111.71V118.35H126.32V116.66Z" fill="#492E85"/>
    <path d="M126.32 116.41H111.71V118.1H126.32V116.41Z" fill="#492E85"/>
    <path d="M126.32 116.16H111.71V117.85H126.32V116.16Z" fill="#4A2E86"/>
    <path d="M126.32 115.9H111.71V117.59H126.32V115.9Z" fill="#4A2E86"/>
    <path d="M126.32 115.65H111.71V117.34H126.32V115.65Z" fill="#4A3088"/>
    <path d="M126.32 115.39H111.71V117.08H126.32V115.39Z" fill="#4A3088"/>
    <path d="M126.32 115.14H111.71V116.83H126.32V115.14Z" fill="#4B3188"/>
    <path d="M126.32 114.89H111.71V116.58H126.32V114.89Z" fill="#4C3189"/>
    <path d="M126.32 114.64H111.71V116.33H126.32V114.64Z" fill="#4C3289"/>
    <path d="M126.32 114.38H111.71V116.07H126.32V114.38Z" fill="#4D3289"/>
    <path d="M126.32 114.13H111.71V115.82H126.32V114.13Z" fill="#4E328A"/>
    <path d="M126.32 113.87H111.71V115.56H126.32V113.87Z" fill="#4F3289"/>
    <path d="M126.32 113.62H111.71V115.31H126.32V113.62Z" fill="#4F338A"/>
    <path d="M126.32 113.37H111.71V115.06H126.32V113.37Z" fill="#50338A"/>
    <path d="M126.32 113.12H111.71V114.81H126.32V113.12Z" fill="#50348B"/>
    <path d="M126.32 112.86H111.71V114.55H126.32V112.86Z" fill="#50358B"/>
    <path d="M126.32 112.61H111.71V114.3H126.32V112.61Z" fill="#51358B"/>
    <path d="M126.32 112.35H111.71V114.04H126.32V112.35Z" fill="#52358B"/>
    <path d="M126.32 112.1H111.71V113.79H126.32V112.1Z" fill="#52368C"/>
    <path d="M126.32 111.85H111.71V113.54H126.32V111.85Z" fill="#51378C"/>
    <path d="M126.32 111.6H111.71V113.29H126.32V111.6Z" fill="#52378C"/>
    <path d="M126.32 111.34H111.71V113.03H126.32V111.34Z" fill="#52378C"/>
    <path d="M126.32 111.09H111.71V112.78H126.32V111.09Z" fill="#53388D"/>
    <path d="M126.32 110.84H111.71V112.53H126.32V110.84Z" fill="#53388D"/>
    <path d="M126.32 110.58H111.71V112.27H126.32V110.58Z" fill="#53398D"/>
    <path fill-rule="evenodd" clip-rule="evenodd" d="M126.31 110.33H111.72C111.715 110.4 111.715 110.47 111.72 110.54V112H126.33V110.52C126.335 110.45 126.335 110.38 126.33 110.31" fill="#55398D"/>
    <path fill-rule="evenodd" clip-rule="evenodd" d="M126.26 110.07H111.78C111.732 110.225 111.709 110.387 111.71 110.55V111.77H126.32V110.55C126.319 110.388 126.299 110.227 126.26 110.07Z" fill="#56398E"/>
    <path fill-rule="evenodd" clip-rule="evenodd" d="M126.16 109.82H111.87C111.763 110.048 111.708 110.298 111.71 110.55V111.55H126.32V110.55C126.322 110.298 126.267 110.048 126.16 109.82Z" fill="#56398E"/>
    <path fill-rule="evenodd" clip-rule="evenodd" d="M126 109.57H112C111.799 109.864 111.694 110.214 111.7 110.57V111.28H126.3V110.57C126.306 110.214 126.201 109.864 126 109.57Z" fill="#563A8E"/>
    <path fill-rule="evenodd" clip-rule="evenodd" d="M125.81 109.31H112.23C112.064 109.471 111.932 109.664 111.843 109.877C111.754 110.09 111.708 110.319 111.71 110.55V111H126.32V110.54C126.321 110.31 126.277 110.082 126.189 109.869C126.102 109.656 125.973 109.463 125.81 109.3" fill="#563A8E"/>
    <path fill-rule="evenodd" clip-rule="evenodd" d="M125.48 109.06H112.55C112.294 109.216 112.083 109.434 111.936 109.695C111.788 109.956 111.711 110.25 111.71 110.55V110.75H126.32V110.55C126.319 110.25 126.241 109.956 126.094 109.695C125.947 109.434 125.736 109.216 125.48 109.06Z" fill="#573B8F"/>
    <path fill-rule="evenodd" clip-rule="evenodd" d="M124.58 108.81H113.45C112.997 108.81 112.562 108.986 112.237 109.302C111.912 109.617 111.723 110.047 111.71 110.5H126.32C126.307 110.047 126.118 109.617 125.793 109.302C125.468 108.986 125.033 108.81 124.58 108.81Z" fill="#573B8F"/>
    <path d="M120.77 112.9L122.63 115.35H121.43L120 113.48C120.165 113.454 120.321 113.388 120.454 113.287C120.587 113.185 120.692 113.052 120.76 112.9" fill="white"/>
    <path d="M119.86 113.17H119.7C119.549 113.134 119.415 113.048 119.319 112.927C119.223 112.805 119.17 112.655 119.17 112.5C119.18 112.323 119.257 112.157 119.385 112.034C119.513 111.912 119.683 111.842 119.86 111.84H120.01C120.178 111.878 120.325 111.979 120.422 112.122C120.519 112.265 120.557 112.44 120.53 112.61C120.536 112.626 120.536 112.644 120.53 112.66C120.498 112.811 120.415 112.946 120.294 113.042C120.174 113.139 120.024 113.191 119.87 113.19" fill="white"/>
    <path d="M116.6 115.35H115.4L117.26 112.9C117.327 113.051 117.431 113.183 117.562 113.285C117.693 113.386 117.847 113.453 118.01 113.48L116.6 115.35Z" fill="white"/>
    <path d="M118 111.81H118.15C118.327 111.812 118.497 111.882 118.625 112.004C118.753 112.127 118.83 112.293 118.84 112.47C118.84 112.625 118.787 112.775 118.691 112.897C118.595 113.018 118.461 113.104 118.31 113.14H118.15C117.996 113.136 117.847 113.083 117.726 112.987C117.605 112.891 117.519 112.759 117.48 112.61C117.485 112.59 117.485 112.57 117.48 112.55C117.456 112.379 117.497 112.204 117.595 112.062C117.693 111.919 117.841 111.818 118.01 111.78" fill="white"/>
    <path d="M123.83 115.63L122.56 120.43H115.46L114.19 115.63H123.83Z" fill="white"/>
    <path fill-rule="evenodd" clip-rule="evenodd" d="M184.17 64.38H165.17C164.322 64.3826 163.51 64.7206 162.91 65.3201C162.311 65.9197 161.973 66.7321 161.97 67.58V86.58C161.975 87.427 162.314 88.2379 162.913 88.8369C163.512 89.4359 164.323 89.7747 165.17 89.78H184.17C185.017 89.7747 185.828 89.4359 186.427 88.8369C187.026 88.2379 187.365 87.427 187.37 86.58V67.58C187.365 66.7329 187.026 65.922 186.427 65.323C185.828 64.724 185.017 64.3852 184.17 64.38Z" fill="#E87878"/>
    <path fill-rule="evenodd" clip-rule="evenodd" d="M186.87 86.43H162.51C162.536 87.1835 162.852 87.8978 163.393 88.4235C163.933 88.9491 164.656 89.2452 165.41 89.25H184C184.754 89.2452 185.477 88.9491 186.017 88.4235C186.558 87.8978 186.874 87.1835 186.9 86.43" fill="#861719"/>
    <path fill-rule="evenodd" clip-rule="evenodd" d="M186.87 86H162.51V86.34C162.511 86.8387 162.641 87.3287 162.886 87.7629C163.131 88.1972 163.484 88.5612 163.91 88.82H185.47C185.896 88.5612 186.249 88.1972 186.494 87.7629C186.739 87.3287 186.869 86.8387 186.87 86.34V86Z" fill="#87171A"/>
    <path fill-rule="evenodd" clip-rule="evenodd" d="M186.87 85.58H162.51V86.35C162.524 87.1035 162.833 87.8215 163.37 88.35H186C186.537 87.8215 186.846 87.1035 186.86 86.35L186.87 85.58Z" fill="#89181B"/>
    <path fill-rule="evenodd" clip-rule="evenodd" d="M186.87 85.16H162.51V86.34C162.499 86.9305 162.67 87.51 163 88H186.35C186.682 87.5176 186.86 86.9457 186.86 86.36L186.87 85.16Z" fill="#8A181B"/>
    <path fill-rule="evenodd" clip-rule="evenodd" d="M186.87 84.74H162.51V86.35C162.512 86.767 162.6 87.1791 162.77 87.56H186.6C186.779 87.1818 186.871 86.7684 186.87 86.35V84.74Z" fill="#8B191B"/>
    <path fill-rule="evenodd" clip-rule="evenodd" d="M186.87 84.32H162.51V86.32C162.507 86.5873 162.544 86.8536 162.62 87.11H186.76C186.831 86.8525 186.868 86.587 186.87 86.32V84.32Z" fill="#8E191C"/>
    <path fill-rule="evenodd" clip-rule="evenodd" d="M186.87 83.89H162.51V86.35C162.51 86.47 162.51 86.59 162.51 86.71H186.83C186.83 86.59 186.83 86.47 186.83 86.35L186.87 83.89Z" fill="#901A1D"/>
    <path d="M186.87 83.47H162.51V86.29H186.87V83.47Z" fill="#901A1D"/>
    <path d="M186.87 83.05H162.51V85.87H186.87V83.05Z" fill="#911A1D"/>
    <path d="M186.87 82.63H162.51V85.45H186.87V82.63Z" fill="#931B1E"/>
    <path d="M186.87 82.2H162.51V85.02H186.87V82.2Z" fill="#941B1E"/>
    <path d="M186.87 81.78H162.51V84.6H186.87V81.78Z" fill="#951B1E"/>
    <path d="M186.87 81.36H162.51V84.18H186.87V81.36Z" fill="#981C1F"/>
    <path d="M186.87 80.94H162.51V83.76H186.87V80.94Z" fill="#991C1F"/>
    <path d="M186.87 80.51H162.51V83.33H186.87V80.51Z" fill="#9A1C20"/>
    <path d="M186.87 80.09H162.51V82.91H186.87V80.09Z" fill="#9B1C20"/>
    <path d="M186.87 79.67H162.51V82.49H186.87V79.67Z" fill="#9D1D20"/>
    <path d="M186.87 79.25H162.51V82.07H186.87V79.25Z" fill="#9F1D21"/>
    <path d="M186.87 78.82H162.51V81.64H186.87V78.82Z" fill="#9F1D21"/>
    <path d="M186.87 78.4H162.51V81.22H186.87V78.4Z" fill="#A11E21"/>
    <path d="M186.87 77.98H162.51V80.8H186.87V77.98Z" fill="#A21E22"/>
    <path d="M186.87 77.56H162.51V80.38H186.87V77.56Z" fill="#A31E22"/>
    <path d="M186.87 77.14H162.51V79.96H186.87V77.14Z" fill="#A41E22"/>
    <path d="M186.87 76.71H162.51V79.53H186.87V76.71Z" fill="#A61F23"/>
    <path d="M186.87 76.29H162.51V79.11H186.87V76.29Z" fill="#A71F23"/>
    <path d="M186.87 75.87H162.51V78.69H186.87V75.87Z" fill="#A91F23"/>
    <path d="M186.87 75.45H162.51V78.27H186.87V75.45Z" fill="#AB1F23"/>
    <path d="M186.87 75.02H162.51V77.84H186.87V75.02Z" fill="#AC2024"/>
    <path d="M186.87 74.6H162.51V77.42H186.87V74.6Z" fill="#AD1F24"/>
    <path d="M186.87 74.18H162.51V77H186.87V74.18Z" fill="#AF2124"/>
    <path d="M186.87 73.76H162.51V76.58H186.87V73.76Z" fill="#B02024"/>
    <path d="M186.87 73.33H162.51V76.15H186.87V73.33Z" fill="#B22125"/>
    <path d="M186.87 72.91H162.51V75.73H186.87V72.91Z" fill="#B32225"/>
    <path d="M186.87 72.49H162.51V75.31H186.87V72.49Z" fill="#B52125"/>
    <path d="M186.87 72.07H162.51V74.89H186.87V72.07Z" fill="#B72126"/>
    <path d="M186.87 71.65H162.51V74.47H186.87V71.65Z" fill="#B72126"/>
    <path d="M186.87 71.22H162.51V74.04H186.87V71.22Z" fill="#BB2127"/>
    <path d="M186.87 70.8H162.51V73.62H186.87V70.8Z" fill="#BB2127"/>
    <path d="M186.87 70.38H162.51V73.2H186.87V70.38Z" fill="#BD2327"/>
    <path d="M186.87 69.96H162.51V72.78H186.87V69.96Z" fill="#BE2327"/>
    <path d="M186.87 69.53H162.51V72.35H186.87V69.53Z" fill="#BF2427"/>
    <path d="M186.87 69.11H162.51V71.93H186.87V69.11Z" fill="#C12528"/>
    <path d="M186.87 68.69H162.51V71.51H186.87V68.69Z" fill="#C22528"/>
    <path d="M186.87 68.27H162.51V71.09H186.87V68.27Z" fill="#C32629"/>
    <path d="M186.87 67.84H162.51V70.66H186.87V67.84Z" fill="#C42529"/>
    <path fill-rule="evenodd" clip-rule="evenodd" d="M186.85 67.42H162.53C162.53 67.54 162.53 67.66 162.53 67.79V70.24H186.89V67.79C186.89 67.66 186.89 67.54 186.89 67.42" fill="#C72628"/>
    <path fill-rule="evenodd" clip-rule="evenodd" d="M186.76 67H162.62C162.543 67.2561 162.506 67.5226 162.51 67.79V69.79H186.87V67.79C186.869 67.5229 186.832 67.2572 186.76 67Z" fill="#C82528"/>
    <path fill-rule="evenodd" clip-rule="evenodd" d="M186.6 66.58H162.77C162.6 66.9608 162.512 67.373 162.51 67.79V69.4H186.87V67.79C186.871 67.3716 186.779 66.9582 186.6 66.58Z" fill="#C92629"/>
    <path fill-rule="evenodd" clip-rule="evenodd" d="M186.36 66.15H163C162.671 66.6332 162.496 67.2052 162.5 67.79V69H186.86V67.82C186.86 67.2343 186.682 66.6623 186.35 66.18" fill="#CC2429"/>
    <path fill-rule="evenodd" clip-rule="evenodd" d="M186 65.73H163.37C163.097 65.9988 162.88 66.3195 162.732 66.6732C162.585 67.027 162.509 67.4067 162.51 67.79V68.55H186.87V67.79C186.871 67.4067 186.795 67.027 186.648 66.6732C186.5 66.3195 186.283 65.9988 186.01 65.73" fill="#CE242A"/>
    <path fill-rule="evenodd" clip-rule="evenodd" d="M185.47 65.31H163.9C163.472 65.5665 163.117 65.93 162.872 66.3648C162.627 66.7996 162.498 67.2907 162.5 67.79V68.13H186.87V67.79C186.872 67.2907 186.743 66.7996 186.498 66.3648C186.253 65.93 185.898 65.5665 185.47 65.31Z" fill="#CF242A"/>
    <path fill-rule="evenodd" clip-rule="evenodd" d="M184 64.89H165.41C164.655 64.8922 163.931 65.1876 163.39 65.7137C162.849 66.2399 162.533 66.9556 162.51 67.71H186.87C186.847 66.9556 186.531 66.2399 185.99 65.7137C185.449 65.1876 184.725 64.8922 183.97 64.89" fill="#D1262B"/>
    <path d="M181.55 70.2C181.858 70.9395 182.082 71.7109 182.22 72.5C182.302 73.1807 182.139 73.8683 181.76 74.44C181.338 75.2412 180.727 75.9276 179.98 76.44V86.49H178.23V76.49C177.471 75.9829 176.849 75.2958 176.42 74.49C176.049 73.9153 175.89 73.2293 175.97 72.55C176.103 71.7598 176.328 70.9879 176.64 70.25C176.85 69.66 177.27 68.2 178.05 68.11L177.59 72.42H178.17L178.64 68.09H179.55L180.02 72.42H180.6L180.13 68.11C180.91 68.2 181.33 69.66 181.55 70.25" fill="white"/>
    <path d="M169.66 86.51V76.62C168.869 76.3075 168.199 75.7513 167.746 75.0321C167.293 74.3129 167.08 73.468 167.14 72.62C167.14 70.35 168.66 67.62 170.53 67.62C172.4 67.62 173.91 70.39 173.91 72.62C173.96 73.4574 173.746 74.2893 173.297 74.9982C172.848 75.707 172.188 76.2569 171.41 76.57V86.47L169.66 86.51Z" fill="white"/>
    <path fill-rule="evenodd" clip-rule="evenodd" d="M225.22 44.52H208.94C208.211 44.5226 207.514 44.8132 206.998 45.3283C206.483 45.8435 206.193 46.5414 206.19 47.27V63.56C206.193 64.2885 206.483 64.9865 206.998 65.5016C207.514 66.0168 208.211 66.3073 208.94 66.31H225.22C225.949 66.3073 226.646 66.0168 227.162 65.5016C227.677 64.9865 227.967 64.2885 227.97 63.56V47.27C227.967 46.5414 227.677 45.8435 227.162 45.3283C226.646 44.8132 225.949 44.5226 225.22 44.52Z" fill="#A98CC0"/>
    <path fill-rule="evenodd" clip-rule="evenodd" d="M225.05 45H209.11C208.45 45.0026 207.819 45.2658 207.352 45.7322C206.886 46.1986 206.623 46.8304 206.62 47.49V63.42C206.625 64.0788 206.889 64.7091 207.355 65.1749C207.821 65.6407 208.451 65.9047 209.11 65.91H225.05C225.709 65.9073 226.339 65.6438 226.804 65.1771C227.269 64.7104 227.53 64.0786 227.53 63.42V47.45C227.531 47.1235 227.468 46.7999 227.344 46.4978C227.22 46.1958 227.038 45.9212 226.807 45.6899C226.577 45.4585 226.303 45.2749 226.001 45.1497C225.7 45.0244 225.377 44.96 225.05 44.96" fill="#573B8F"/>
    <path fill-rule="evenodd" clip-rule="evenodd" d="M227.53 63.45H206.62C206.646 64.0957 206.918 64.7069 207.382 65.1573C207.845 65.6076 208.464 65.8628 209.11 65.87H225.05C225.696 65.8651 226.315 65.6105 226.777 65.1593C227.24 64.7082 227.509 64.0956 227.53 63.45Z" fill="#3A2C79"/>
    <path fill-rule="evenodd" clip-rule="evenodd" d="M227.53 63.09H206.62V63.38C206.621 63.808 206.732 64.2287 206.942 64.6017C207.152 64.9746 207.454 65.2874 207.82 65.51H226.33C226.697 65.2888 227 64.9764 227.211 64.6031C227.421 64.2298 227.531 63.8084 227.53 63.38V63.09Z" fill="#3B2C79"/>
    <path fill-rule="evenodd" clip-rule="evenodd" d="M227.53 62.72H206.62V63.38C206.624 64.0445 206.89 64.6806 207.36 65.15H226.8C227.268 64.6796 227.53 64.0433 227.53 63.38V62.72Z" fill="#3B2D7C"/>
    <path fill-rule="evenodd" clip-rule="evenodd" d="M227.53 62.36H206.62V63.36C206.618 63.8609 206.772 64.3501 207.06 64.76H227.06C227.34 64.347 227.49 63.8592 227.49 63.36L227.53 62.36Z" fill="#3B2D7C"/>
    <path fill-rule="evenodd" clip-rule="evenodd" d="M227.53 62H206.62V63.38C206.627 63.7256 206.705 64.0661 206.85 64.38H227.31C227.455 64.0661 227.533 63.7256 227.54 63.38L227.53 62Z" fill="#3C2D7D"/>
    <path fill-rule="evenodd" clip-rule="evenodd" d="M227.53 61.64H206.62V63.38C206.618 63.6104 206.652 63.8398 206.72 64.06H227.44C227.5 63.8383 227.53 63.6096 227.53 63.38V61.64Z" fill="#3E2D7D"/>
    <path fill-rule="evenodd" clip-rule="evenodd" d="M227.53 61.28H206.62V63.38C206.62 63.48 206.62 63.59 206.62 63.69H227.49C227.5 63.5869 227.5 63.4831 227.49 63.38L227.53 61.28Z" fill="#3F2D7D"/>
    <path d="M227.53 60.91H206.62V63.33H227.53V60.91Z" fill="#402D7D"/>
    <path d="M227.53 60.55H206.62V62.97H227.53V60.55Z" fill="#412D7D"/>
    <path d="M227.53 60.19H206.62V62.61H227.53V60.19Z" fill="#422D7E"/>
    <path d="M227.53 59.82H206.62V62.24H227.53V59.82Z" fill="#432E80"/>
    <path d="M227.53 59.46H206.62V61.88H227.53V59.46Z" fill="#442E80"/>
    <path d="M227.53 59.1H206.62V61.52H227.53V59.1Z" fill="#452E80"/>
    <path d="M227.53 58.74H206.62V61.16H227.53V58.74Z" fill="#442E81"/>
    <path d="M227.53 58.37H206.62V60.79H227.53V58.37Z" fill="#452E82"/>
    <path d="M227.53 58.01H206.62V60.43H227.53V58.01Z" fill="#452E82"/>
    <path d="M227.53 57.65H206.62V60.07H227.53V57.65Z" fill="#452E83"/>
    <path d="M227.53 57.29H206.62V59.71H227.53V57.29Z" fill="#462E84"/>
    <path d="M227.53 56.92H206.62V59.34H227.53V56.92Z" fill="#472E84"/>
    <path d="M227.53 56.56H206.62V58.98H227.53V56.56Z" fill="#492E85"/>
    <path d="M227.53 56.2H206.62V58.62H227.53V56.2Z" fill="#492E85"/>
    <path d="M227.53 55.84H206.62V58.26H227.53V55.84Z" fill="#492E85"/>
    <path d="M227.53 55.47H206.62V57.89H227.53V55.47Z" fill="#4A2E86"/>
    <path d="M227.53 55.11H206.62V57.53H227.53V55.11Z" fill="#4A2E86"/>
    <path d="M227.53 54.75H206.62V57.17H227.53V54.75Z" fill="#4A3088"/>
    <path d="M227.53 54.38H206.62V56.8H227.53V54.38Z" fill="#4A3088"/>
    <path d="M227.53 54.02H206.62V56.44H227.53V54.02Z" fill="#4B3188"/>
    <path d="M227.53 53.66H206.62V56.08H227.53V53.66Z" fill="#4C3189"/>
    <path d="M227.53 53.3H206.62V55.72H227.53V53.3Z" fill="#4C3289"/>
    <path d="M227.53 52.93H206.62V55.35H227.53V52.93Z" fill="#4D3289"/>
    <path d="M227.53 52.57H206.62V54.99H227.53V52.57Z" fill="#4E328A"/>
    <path d="M227.53 52.21H206.62V54.63H227.53V52.21Z" fill="#4F3289"/>
    <path d="M227.53 51.85H206.62V54.27H227.53V51.85Z" fill="#4F338A"/>
    <path d="M227.53 51.48H206.62V53.9H227.53V51.48Z" fill="#50338A"/>
    <path d="M227.53 51.12H206.62V53.54H227.53V51.12Z" fill="#50348B"/>
    <path d="M227.53 50.76H206.62V53.18H227.53V50.76Z" fill="#50358B"/>
    <path d="M227.53 50.4H206.62V52.82H227.53V50.4Z" fill="#51358B"/>
    <path d="M227.53 50.03H206.62V52.45H227.53V50.03Z" fill="#52358B"/>
    <path d="M227.53 49.67H206.62V52.09H227.53V49.67Z" fill="#52368C"/>
    <path d="M227.53 49.31H206.62V51.73H227.53V49.31Z" fill="#51378C"/>
    <path d="M227.53 48.95H206.62V51.37H227.53V48.95Z" fill="#52378C"/>
    <path d="M227.53 48.58H206.62V51H227.53V48.58Z" fill="#52378C"/>
    <path d="M227.53 48.22H206.62V50.64H227.53V48.22Z" fill="#53388D"/>
    <path d="M227.53 47.86H206.62V50.28H227.53V47.86Z" fill="#53388D"/>
    <path d="M227.53 47.5H206.62V49.92H227.53V47.5Z" fill="#53398D"/>
    <path fill-rule="evenodd" clip-rule="evenodd" d="M227.51 47.13H206.64C206.64 47.24 206.64 47.34 206.64 47.45V49.55H227.55V47.45C227.56 47.3435 227.56 47.2364 227.55 47.13" fill="#55398D"/>
    <path fill-rule="evenodd" clip-rule="evenodd" d="M227.44 46.77H206.72C206.652 46.9901 206.618 47.2195 206.62 47.45V49.19H227.53V47.45C227.53 47.2203 227.5 46.9916 227.44 46.77Z" fill="#56398E"/>
    <path fill-rule="evenodd" clip-rule="evenodd" d="M227.31 46.41H206.85C206.704 46.7235 206.626 47.0642 206.62 47.41V48.79H227.53V47.41C227.529 47.0637 227.45 46.722 227.3 46.41" fill="#56398E"/>
    <path fill-rule="evenodd" clip-rule="evenodd" d="M227.1 46.05H207.1C206.812 46.4598 206.658 46.949 206.66 47.45V48.45H227.57V47.45C227.57 46.9508 227.42 46.463 227.14 46.05" fill="#563A8E"/>
    <path fill-rule="evenodd" clip-rule="evenodd" d="M226.8 45.68H207.36C207.126 45.9117 206.94 46.1874 206.813 46.4911C206.686 46.7949 206.621 47.1208 206.62 47.45V48.1H227.53V47.45C227.531 47.1214 227.467 46.7958 227.342 46.492C227.217 46.1882 227.032 45.9122 226.8 45.68Z" fill="#563A8E"/>
    <path fill-rule="evenodd" clip-rule="evenodd" d="M226.33 45.32H207.82C207.454 45.5426 207.152 45.8553 206.942 46.2283C206.732 46.6012 206.621 47.0219 206.62 47.45V47.74H227.53V47.45C227.531 47.0215 227.421 46.6001 227.211 46.2268C227 45.8535 226.697 45.5411 226.33 45.32Z" fill="#573B8F"/>
    <path fill-rule="evenodd" clip-rule="evenodd" d="M225.05 45H209.11C208.463 45.0023 207.843 45.2562 207.38 45.7078C206.917 46.1595 206.648 46.7735 206.63 47.42H227.53C227.512 46.7735 227.243 46.1595 226.78 45.7078C226.317 45.2562 225.697 45.0023 225.05 45Z" fill="#573B8F"/>
    <path d="M217 48.91C217.78 48.91 218.41 50.91 218.41 51.73V53.73L223.36 55.82V57.21L218.41 56.21V59L220.54 60.57V61.96L217.02 60.73L213.56 61.96V60.57L215.56 59.05V56.27L210.71 57.22V55.83L215.56 53.75V51.75C215.56 50.97 216.19 48.93 216.97 48.93" fill="white"/>
    <path d="M140.72 88H107C105.143 88 103.363 87.2625 102.05 85.9497C100.737 84.637 100 82.8565 100 81V47.29C100 45.4335 100.737 43.653 102.05 42.3402C103.363 41.0275 105.143 40.29 107 40.29H140.68C142.532 40.3031 144.305 41.0448 145.615 42.3547C146.925 43.6646 147.667 45.4375 147.68 47.29V81C147.68 82.8565 146.943 84.637 145.63 85.9497C144.317 87.2625 142.537 88 140.68 88" fill="#F4971F"/>
    <path d="M119 73.12L116.65 71.12H133.09L119 73.12Z" fill="white"/>
    <path d="M121.66 69.6799V65.32H123.54L126.81 69.6799H130.15L126.21 64.42C127.049 63.8258 127.677 62.9797 128.003 62.0045C128.329 61.0293 128.336 59.9756 128.023 58.9961C127.71 58.0167 127.093 57.1625 126.262 56.5572C125.431 55.952 124.428 55.6272 123.4 55.63H119V69.6799H121.66ZM121.66 58.2999H123.4C123.698 58.2797 123.997 58.321 124.278 58.4211C124.56 58.5213 124.818 58.6782 125.036 58.8822C125.254 59.0861 125.428 59.3327 125.547 59.6067C125.666 59.8807 125.728 60.1763 125.728 60.475C125.728 60.7737 125.666 61.0692 125.547 61.3432C125.428 61.6172 125.254 61.8638 125.036 62.0678C124.818 62.2717 124.56 62.4286 124.278 62.5288C123.997 62.6289 123.698 62.6702 123.4 62.65H121.66V58.2999Z" fill="white"/>
    <path d="M243.37 186H220.52C219.258 186 218.047 185.498 217.154 184.606C216.262 183.713 215.76 182.502 215.76 181.24V158.4C215.759 157.774 215.881 157.154 216.119 156.575C216.358 155.997 216.709 155.471 217.151 155.028C217.593 154.585 218.118 154.233 218.696 153.993C219.274 153.753 219.894 153.63 220.52 153.63H243.37C243.996 153.63 244.616 153.753 245.194 153.993C245.772 154.233 246.297 154.585 246.739 155.028C247.182 155.471 247.532 155.997 247.771 156.575C248.009 157.154 248.131 157.774 248.13 158.4V181.25C248.13 182.512 247.629 183.723 246.736 184.616C245.843 185.508 244.632 186.01 243.37 186.01" fill="#20B24B"/>
    <path d="M228.63 175.92L227 174.59H238.14L228.63 175.92Z" fill="white"/>
    <path d="M230.44 173.58V170.58H231.72L233.93 173.58H236.2L233.52 170C234.108 169.604 234.551 169.029 234.785 168.36C235.018 167.691 235.029 166.964 234.815 166.289C234.601 165.614 234.174 165.026 233.598 164.613C233.022 164.2 232.328 163.985 231.62 164H228.62V173.52L230.44 173.58ZM230.44 165.87H231.62C232.018 165.87 232.399 166.028 232.681 166.309C232.962 166.591 233.12 166.972 233.12 167.37C233.12 167.768 232.962 168.149 232.681 168.431C232.399 168.712 232.018 168.87 231.62 168.87H230.44V165.87Z" fill="white"/>
    <path d="M86.29 138.12H65.45C64.8806 138.12 64.3167 138.008 63.7907 137.789C63.2647 137.571 62.7869 137.251 62.3847 136.848C61.9825 136.445 61.6637 135.967 61.4467 135.44C61.2297 134.914 61.1187 134.349 61.12 133.78V113C61.12 111.852 61.5762 110.75 62.3882 109.938C63.2003 109.126 64.3016 108.67 65.45 108.67H86.29C87.4384 108.67 88.5397 109.126 89.3518 109.938C90.1638 110.75 90.62 111.852 90.62 113V133.83C90.6174 134.978 90.1607 136.079 89.3495 136.892C88.5383 137.705 87.4385 138.165 86.29 138.17" fill="#399BD6"/>
    <path d="M72.85 128.92L71.4 127.7H81.55L72.85 128.92Z" fill="white"/>
    <path d="M74.49 126.79V124.1H75.66L77.66 126.79H79.72L77.28 123.55C77.7915 123.18 78.1732 122.657 78.3706 122.058C78.568 121.458 78.571 120.811 78.3793 120.209C78.1876 119.607 77.8109 119.082 77.3029 118.706C76.7949 118.331 76.1815 118.126 75.55 118.12H72.83V126.79H74.49ZM74.49 119.79H75.57C75.9084 119.809 76.2272 119.954 76.4632 120.198C76.6992 120.441 76.8351 120.764 76.8439 121.103C76.8527 121.441 76.7338 121.771 76.5108 122.026C76.2877 122.281 75.9769 122.443 75.64 122.48H74.49V119.79Z" fill="white"/>
    <path d="M208.31 40H180.31C179.544 40 178.786 39.8492 178.079 39.5562C177.372 39.2632 176.729 38.8338 176.188 38.2924C175.646 37.751 175.217 37.1083 174.924 36.401C174.631 35.6937 174.48 34.9356 174.48 34.17V6.16999C174.48 5.40486 174.631 4.64721 174.924 3.94044C175.217 3.23367 175.647 2.59163 176.188 2.05106C176.73 1.5105 177.372 1.08203 178.08 0.790139C178.787 0.498246 179.545 0.34867 180.31 0.349984H208.31C209.075 0.348667 209.832 0.498307 210.539 0.790322C211.245 1.08234 211.888 1.51098 212.428 2.05167C212.969 2.59237 213.398 3.23449 213.69 3.9412C213.982 4.64791 214.131 5.40533 214.13 6.16999V34.17C214.13 34.9343 213.979 35.6911 213.687 36.3972C213.394 37.1033 212.966 37.7449 212.425 38.2853C211.885 38.8258 211.243 39.2545 210.537 39.5469C209.831 39.8394 209.074 39.99 208.31 39.99" fill="#29388A"/>
    <path d="M190.27 27.66L188.32 26H202L190.27 27.66Z" fill="white"/>
    <path d="M192.48 24.7999V21.19H194.05L196.76 24.7999H199.53L196.26 20.44C196.965 19.9524 197.495 19.251 197.772 18.4393C198.048 17.6276 198.057 16.7486 197.796 15.9318C197.535 15.115 197.018 14.4037 196.322 13.9029C195.626 13.402 194.787 13.1381 193.93 13.15H190.27V24.7999H192.48ZM192.48 15.3599H193.92C194.168 15.3414 194.418 15.3744 194.653 15.4567C194.888 15.5391 195.103 15.669 195.286 15.8384C195.468 16.0078 195.614 16.2131 195.714 16.4413C195.813 16.6696 195.864 16.9159 195.864 17.165C195.864 17.414 195.813 17.6603 195.714 17.8886C195.614 18.1168 195.468 18.3221 195.286 18.4915C195.103 18.6609 194.888 18.7909 194.653 18.8732C194.418 18.9555 194.168 18.9885 193.92 18.97H192.47L192.48 15.3599Z" fill="white"/>
    <path d="M121.07 189H104C103.056 189 102.15 188.625 101.483 187.957C100.815 187.29 100.44 186.384 100.44 185.44V168.39C100.44 167.446 100.815 166.54 101.483 165.873C102.15 165.205 103.056 164.83 104 164.83H121.06C122.003 164.833 122.907 165.209 123.574 165.876C124.241 166.543 124.617 167.447 124.62 168.39V185.45C124.62 186.394 124.245 187.3 123.577 187.967C122.91 188.635 122.004 189.01 121.06 189.01" fill="#733F98"/>
    <path d="M110.06 181.47L108.88 180.47H117.2L110.06 181.47Z" fill="white"/>
    <path d="M111.41 179.73V177.53H112.41L114.06 179.73H115.75L113.75 177.07C114.175 176.769 114.493 176.341 114.658 175.848C114.823 175.354 114.827 174.821 114.669 174.325C114.511 173.829 114.199 173.397 113.778 173.09C113.358 172.784 112.85 172.619 112.33 172.62H110.1V179.73H111.41ZM111.41 173.97H112.3C112.592 173.97 112.872 174.086 113.078 174.292C113.284 174.498 113.4 174.778 113.4 175.07C113.4 175.362 113.284 175.642 113.078 175.848C112.872 176.054 112.592 176.17 112.3 176.17H111.41V173.97Z" fill="white"/>
    <path d="M256.1 121.57H224.8C223.068 121.57 221.407 120.882 220.183 119.657C218.958 118.433 218.27 116.772 218.27 115.04V83.74C218.27 82.0081 218.958 80.3472 220.183 79.1226C221.407 77.8979 223.068 77.21 224.8 77.21H256.1C257.832 77.21 259.493 77.8979 260.717 79.1226C261.942 80.3472 262.63 82.0081 262.63 83.74V115C262.63 116.732 261.942 118.393 260.717 119.617C259.493 120.842 257.832 121.53 256.1 121.53" fill="#E1549E"/>
    <path d="M235.91 107.74L233.73 105.91H249L235.91 107.74Z" fill="white"/>
    <path d="M238.39 104.54V100.54H240.14L243.14 104.54H246.24L242.57 99.66C243.348 99.1078 243.931 98.3224 244.234 97.4174C244.536 96.5125 244.543 95.5347 244.254 94.6253C243.965 93.716 243.394 92.9222 242.624 92.3586C241.854 91.795 240.924 91.4908 239.97 91.49H235.87V104.54H238.39ZM238.39 93.97H240C240.53 93.97 241.039 94.1807 241.414 94.5558C241.789 94.9308 242 95.4395 242 95.97C242 96.5004 241.789 97.0091 241.414 97.3842C241.039 97.7593 240.53 97.97 240 97.97H238.38L238.39 93.97Z" fill="white"/>
    <path d="M168.34 220.14L165.82 217.14C165.72 217.03 155.58 204.77 145.48 189.89C131.75 169.66 124.79 154.57 124.79 145.03C124.79 121.82 144.33 102.94 168.34 102.94C192.35 102.94 211.88 121.82 211.88 145.03C211.88 154.57 204.88 169.66 191.19 189.89C181.39 204.32 171.28 216.61 170.86 217.12L168.34 220.12V220.14ZM168.34 122.04C164.292 122.174 160.373 123.496 157.072 125.843C153.771 128.19 151.235 131.456 149.779 135.236C148.323 139.015 148.012 143.14 148.885 147.094C149.758 151.049 151.777 154.659 154.689 157.474C157.601 160.289 161.277 162.184 165.259 162.923C169.241 163.662 173.353 163.211 177.081 161.628C180.809 160.045 183.988 157.399 186.221 154.02C188.455 150.642 189.644 146.68 189.64 142.63C189.543 137.072 187.246 131.78 183.253 127.913C179.261 124.046 173.898 121.92 168.34 122V122.04Z" fill="#AE1F24"/>
</svg>
