<svg  width="207" height="107" viewBox="0 0 207 107" fill="none" xmlns="http://www.w3.org/2000/svg">
    <!-- Add text to the left -->
    <text x="0" y="80" font-family="Arial Rounded MT Bold, sans-serif" font-weight="bold"  font-size="20" fill="#F59502">Analytics Extensions</text>

    <!-- Original SVG -->
    <g transform="translate(0, 0)">
        <path d="M148.549 45.8016H37.4709L46.3199 54.6528L148.549 45.8016Z" fill="#F59502"/>
        <path d="M41.3153 33.6335C37.4793 33.6335 34.6686 29.8549 34.6686 25.0799C34.6686 20.3075 37.4793 16.5289 41.3153 16.5289C45.1567 16.5289 47.8664 20.3075 47.8664 25.0799C47.8664 29.8549 45.1567 33.6335 41.3153 33.6335ZM47.7601 10.0054V11.342C45.6986 10.0293 43.847 9.26406 41.3153 9.26406C33.5343 9.26406 27.6208 16.3615 27.6208 25.0799C27.6208 33.7983 33.5343 40.8931 41.3153 40.8931C43.847 40.8931 45.6986 40.1331 47.7601 38.8151V40.1544H54.6007V10.0054H47.7601Z" fill="#F59502"/>
        <path d="M102.558 10.0047V27.7152C102.558 31.0367 100.276 33.8427 96.9529 33.8427C93.6322 33.8427 91.3476 31.0367 91.3476 27.7152V10.0047H84.507V27.7152C84.507 34.9827 89.4774 40.895 96.743 40.895C100.109 40.895 102.558 39.0323 102.558 39.0323V40.1537H109.399V10.0047H102.558Z" fill="#F59502"/>
        <path d="M166.299 40.1523V22.4419C166.299 19.1204 168.581 16.3143 171.904 16.3143C175.225 16.3143 177.507 19.1204 177.507 22.4419V40.1523H184.35V22.4419C184.35 15.1744 179.38 9.26205 172.114 9.26205C168.748 9.26205 166.299 11.1248 166.299 11.1248V10.0034H159.458V40.1523H166.299Z" fill="#F59502"/>
        <path d="M7.9055 9.64203H12.5731C15.7875 9.64203 18.4148 12.2567 18.4148 15.4746C18.4148 18.7032 15.7875 21.3152 12.5731 21.3152H7.9055V9.64203ZM7.9055 40.1523V28.4738H12.9662L21.7275 40.1523H30.6828L20.0964 26.0584C23.3959 23.6908 25.5609 19.8378 25.5609 15.4746C25.5609 8.31075 19.7378 2.49142 12.5731 2.49142H0.751404V40.1523H7.9055Z" fill="#F59502"/>
        <path d="M127.836 33.0195C127.223 33.4367 126.447 33.7609 125.549 33.7609C124.431 33.7609 122.324 32.9079 122.324 30.062V17.1611H128.174V10.0052H122.324V2.49057H115.483V10.0052H111.865V17.1611H115.483V30.1656C115.481 36.899 120.552 40.9194 125.653 40.9194C127.555 40.9194 130.193 40.2976 132.344 39.0222L127.836 33.0195Z" fill="#F59502"/>
        <path d="M71.608 24.1355L83.342 10.0044H73.7518L65.5457 20.5058V-8.44768e-05H58.5005V40.1533H65.5457V27.768L75.6353 40.1533H85.2201L71.608 24.1355Z" fill="#F59502"/>
        <path d="M149.609 21.1868H137.288C138.728 14.1266 148.275 13.72 149.609 21.1868ZM143.637 9.23994C135.721 9.23994 130.041 16.1992 130.041 25.077C130.041 34.4145 137.168 40.9194 144.317 40.9194C147.925 40.9194 152.547 39.6838 156.431 34.1701L150.39 30.6811C145.717 37.5713 137.928 34.0744 137.03 27.1842L156.734 27.1895C158.421 16.3613 151.421 9.23994 143.637 9.23994Z" fill="#F59502"/>
    </g>
</svg>
