<svg width="175" height="24" viewBox="0 0 175 24" fill="none" xmlns="http://www.w3.org/2000/svg">
<g clip-path="url(#clip0_2_13)">
<path d="M64.4777 20.1135H16.0192L19.879 24L64.4777 20.1135Z" fill="#BF0000"/>
<path d="M17.6962 14.7696C16.0222 14.7696 14.7966 13.1096 14.7966 11.0132C14.7966 8.91793 16.0222 7.25794 17.6962 7.25794C19.372 7.25794 20.5535 8.91793 20.5535 11.0132C20.5535 13.1096 19.372 14.7696 17.6962 14.7696ZM20.5078 4.39247V4.98004C19.6085 4.40297 18.8013 4.06747 17.6962 4.06747C14.3011 4.06747 11.7225 7.1844 11.7225 11.0132C11.7225 14.8425 14.3011 17.9577 17.6962 17.9577C18.8013 17.9577 19.6079 17.6234 20.5078 17.0457V17.6327H23.4921V4.39247H20.5078Z" fill="#BF0000"/>
<path d="M44.4137 4.3927V12.1705C44.4137 13.6291 43.4184 14.8615 41.9684 14.8615C40.5197 14.8615 39.5236 13.6291 39.5236 12.1705V4.3927H36.5394V12.1705C36.5394 15.3621 38.7071 17.958 41.8774 17.958C43.3454 17.958 44.4137 17.1405 44.4137 17.1405V17.6329H47.3981V4.3927H44.4137Z" fill="#BF0000"/>
<path d="M72.2208 17.6328V9.85499C72.2208 8.39631 73.2161 7.16399 74.6661 7.16399C76.1147 7.16399 77.111 8.39631 77.111 9.85499V17.6328H80.0953V9.85499C80.0953 6.66338 77.9275 4.06747 74.757 4.06747C73.2896 4.06747 72.2208 4.88494 72.2208 4.88494V4.39246H69.2364V17.6328H72.2208Z" fill="#BF0000"/>
<path d="M3.121 4.23357H5.1578C6.55955 4.23357 7.70572 5.38183 7.70572 6.7956C7.70572 8.21344 6.55955 9.36056 5.1578 9.36056H3.121V4.23357ZM3.121 17.6325V12.5032H5.32875L9.15032 17.6325H13.0576L8.43931 11.443C9.87871 10.4033 10.8238 8.71174 10.8238 6.7956C10.8238 3.64892 8.28288 1.09329 5.1578 1.09329H0V17.6325H3.121Z" fill="#BF0000"/>
<path d="M55.4413 14.4999C55.1732 14.6831 54.8352 14.8254 54.4434 14.8254C53.9555 14.8254 53.0365 14.4503 53.0365 13.2011V7.53492H55.5885V4.39229H53.0365V1.09332H50.0521V4.39229H48.4733V7.53492H50.0521V13.2471C50.0517 16.2036 52.2635 17.9692 54.4895 17.9692C55.3184 17.9692 56.4691 17.6962 57.4081 17.136L55.4413 14.4999Z" fill="#BF0000"/>
<path d="M30.9114 10.5989L36.0304 4.39247H31.8473L28.2667 9.00488V6.10352e-05H25.1938V17.6328H28.2667V12.1941L32.6684 17.6328H36.8492L30.9114 10.5989Z" fill="#BF0000"/>
<path d="M64.9399 9.30364H59.5644C60.1927 6.20245 64.3582 6.02451 64.9399 9.30364ZM62.3346 4.05643C58.8802 4.05643 56.4029 7.11269 56.4029 11.0127C56.4029 15.1133 59.5132 17.9694 62.6312 17.9694C64.2049 17.97 66.2221 17.4262 67.9166 15.006L65.2805 13.4732C63.242 16.4991 59.8444 14.9634 59.4522 11.9375L68.0485 11.9398C68.784 7.18388 65.73 4.05643 62.3346 4.05643Z" fill="#BF0000"/>
<path d="M137.982 5.07211H140.061L131.769 22.3121H129.714L133.065 15.5146L128.051 5.07211H130.277L134.141 13.5202L137.982 5.07211Z" fill="#BF0000"/>
<path d="M88.7557 11.8457H94.4543L91.5928 3.79251L88.7557 11.8457ZM84.6961 17.6331L90.4925 1.9213H92.84L98.6364 17.6331H96.5086L95.115 13.7175H88.0954L86.7253 17.6331H84.6961Z" fill="#BF0000"/>
<path d="M99.4414 17.6331V5.07321H101.13L101.35 7.41295C101.757 6.60895 102.316 5.97647 103.025 5.51665C103.734 5.05748 104.537 4.827 105.434 4.827C106.788 4.827 107.863 5.3037 108.663 6.25594C109.461 7.20758 109.86 8.58694 109.86 10.3928V17.6331H107.904V10.4914C107.904 9.2766 107.639 8.34887 107.109 7.7088C106.579 7.06812 105.866 6.74781 104.969 6.74781C104.268 6.74781 103.648 6.94093 103.111 7.32664C102.572 7.71231 102.152 8.22574 101.851 8.86581C101.549 9.50592 101.398 10.2043 101.398 10.9588V17.6331H99.4414Z" fill="#BF0000"/>
<path d="M117.183 15.9587C117.918 15.9587 118.574 15.7655 119.152 15.3798C119.731 14.9942 120.188 14.4521 120.522 13.7543C120.857 13.057 121.023 12.2565 121.023 11.3533C121.023 10.4337 120.857 9.6291 120.522 8.94C120.188 8.25034 119.731 7.71236 119.152 7.32669C118.574 6.94102 117.918 6.7479 117.183 6.7479C116.45 6.7479 115.794 6.94102 115.216 7.32669C114.636 7.71236 114.18 8.25034 113.845 8.94C113.511 9.6291 113.344 10.4337 113.344 11.3533C113.344 12.2565 113.511 13.057 113.845 13.7543C114.18 14.4521 114.636 14.9942 115.216 15.3798C115.794 15.7655 116.45 15.9587 117.183 15.9587ZM116.817 17.8795C115.791 17.8795 114.861 17.6 114.03 17.0416C113.197 16.4838 112.541 15.7119 112.06 14.727C111.579 13.742 111.338 12.6177 111.338 11.3533C111.338 10.0725 111.579 8.94412 112.06 7.96736C112.541 6.9906 113.197 6.22277 114.03 5.66439C114.861 5.10656 115.791 4.82709 116.817 4.82709C117.763 4.82709 118.611 5.06104 119.361 5.529C120.11 5.99696 120.672 6.63352 121.048 7.43756L121.269 5.0733H122.956V17.6332H121.269L121.048 15.2684C120.672 16.0567 120.11 16.6892 119.361 17.1653C118.611 17.6414 117.763 17.8795 116.817 17.8795Z" fill="#BF0000"/>
<path d="M125.015 0.395721H126.944V17.6334H125.015V0.395721Z" fill="#BF0000"/>
<path d="M146.186 17.8793C143.773 17.8793 142.566 16.4673 142.566 13.6438V6.89588H140.882V5.07308H142.566V1.82312H144.523V5.07308H148.876V6.89588H144.523V13.5452C144.523 15.1538 145.134 15.9584 146.357 15.9584C146.732 15.9584 147.087 15.8884 147.421 15.749C147.755 15.6101 148.126 15.3837 148.534 15.0721L149.096 16.9929C148.297 17.5834 147.327 17.8793 146.186 17.8793Z" fill="#BF0000"/>
<path d="M150.661 5.07342H152.618V17.6334H150.661V5.07342ZM151.64 3.17714C151.232 3.17714 150.894 3.03359 150.625 2.74594C150.356 2.45945 150.221 2.12688 150.221 1.74879C150.221 1.37127 150.356 1.03926 150.625 0.751028C150.894 0.464541 151.232 0.320435 151.64 0.320435C152.048 0.320435 152.385 0.464541 152.655 0.751028C152.924 1.03926 153.059 1.37127 153.059 1.74879C153.059 2.12688 152.924 2.45945 152.655 2.74594C152.385 3.03359 152.048 3.17714 151.64 3.17714Z" fill="#BF0000"/>
<path d="M159.762 17.9282C158.637 17.9282 157.646 17.6534 156.79 17.1032C155.934 16.5536 155.266 15.7898 154.785 14.8136C154.304 13.8369 154.064 12.716 154.064 11.4516C154.064 10.1382 154.312 8.98059 154.809 7.97936C155.307 6.97813 155.987 6.19393 156.851 5.62796C157.715 5.06079 158.71 4.7778 159.836 4.7778C160.846 4.7778 161.788 5.02813 162.66 5.52934C163.532 6.02996 164.238 6.73187 164.776 7.63453L163.406 9.08739C162.509 7.49567 161.343 6.69862 159.909 6.69862C159.159 6.69862 158.494 6.89584 157.916 7.2897C157.336 7.68412 156.885 8.23376 156.558 8.93974C156.232 9.64577 156.068 10.4667 156.068 11.402C156.068 12.7814 156.42 13.8935 157.121 14.7395C157.822 15.585 158.742 16.0074 159.884 16.0074C161.385 16.0074 162.575 15.2279 163.456 13.6683L164.8 15.0966C164.246 15.9829 163.524 16.6767 162.636 17.1773C161.747 17.6779 160.789 17.9282 159.762 17.9282Z" fill="#BF0000"/>
<path d="M170.525 17.9282C169.497 17.9282 168.552 17.7065 167.688 17.2631C166.823 16.8202 166.098 16.1801 165.511 15.3428L166.783 13.89C167.712 15.351 168.951 16.0815 170.5 16.0815C171.299 16.0815 171.918 15.9298 172.359 15.6258C172.799 15.3224 173.019 14.8912 173.019 14.3328C173.019 13.3479 172.302 12.6752 170.867 12.314L169.424 11.9441C168.413 11.6821 167.622 11.2422 167.052 10.6266C166.481 10.011 166.196 9.27643 166.196 8.4222C166.196 7.71677 166.379 7.08896 166.746 6.53876C167.113 5.98912 167.614 5.55793 168.251 5.24576C168.886 4.93419 169.603 4.7778 170.402 4.7778C171.282 4.7778 172.101 4.96222 172.86 5.33212C173.618 5.70146 174.209 6.22252 174.633 6.89584L173.41 8.37322C172.97 7.74947 172.518 7.30252 172.053 7.03119C171.589 6.76046 171.038 6.62452 170.402 6.62452C169.75 6.62452 169.212 6.7809 168.788 7.09247C168.364 7.40464 168.152 7.81539 168.152 8.32359C168.152 8.7834 168.315 9.1533 168.641 9.43221C168.967 9.71169 169.522 9.95794 170.304 10.1709L171.674 10.5408C172.734 10.836 173.553 11.3005 174.132 11.9318C174.71 12.5637 175 13.3234 175 14.2097C175 15.3102 174.593 16.2046 173.778 16.8943C172.962 17.5834 171.878 17.9282 170.525 17.9282Z" fill="#BF0000"/>
</g>
<defs>
<clipPath id="clip0_2_13">
<rect width="175" height="24" fill="white"/>
</clipPath>
</defs>
</svg>
